<svg width="70" height="70" viewBox="0 0 70 70" fill="none" xmlns="http://www.w3.org/2000/svg">
<g clip-path="url(#clip0_3090_76665)">
<path d="M66.6498 43.7717C66.6498 49.6217 62.2798 54.4517 56.6098 55.1617H14.0398C13.8698 55.1417 13.6998 55.1217 13.5398 55.0917C8.12977 54.1717 4.00977 49.4517 4.00977 43.7817C4.00977 38.6617 7.35977 34.3217 11.9898 32.8417C11.8298 32.1817 11.7498 31.5017 11.7498 30.8017C11.7498 25.9617 15.6698 22.0317 20.5098 22.0317C21.3398 22.0317 22.1498 22.1417 22.9098 22.3717C24.5698 18.0717 28.7398 15.0117 33.6298 15.0117C37.4998 15.0117 40.9198 16.9217 42.9998 19.8517C44.7798 18.3717 47.0698 17.4817 49.5598 17.4817C55.2298 17.4817 59.8198 22.0817 59.8198 27.7517C59.8198 29.5817 59.3398 31.3017 58.4998 32.7917C63.2198 34.2117 66.6498 38.6017 66.6498 43.7817V43.7717Z" fill="#EBEBEB"/>
<path d="M29.7095 36.2334C32.0457 36.2334 33.9395 34.3396 33.9395 32.0034C33.9395 29.6673 32.0457 27.7734 29.7095 27.7734C27.3733 27.7734 25.4795 29.6673 25.4795 32.0034C25.4795 34.3396 27.3733 36.2334 29.7095 36.2334Z" fill="white"/>
<path d="M30.3094 35.1734C31.9386 35.1734 33.2594 33.8527 33.2594 32.2234C33.2594 30.5942 31.9386 29.2734 30.3094 29.2734C28.6801 29.2734 27.3594 30.5942 27.3594 32.2234C27.3594 33.8527 28.6801 35.1734 30.3094 35.1734Z" fill="black"/>
<path d="M40.3599 36.2334C42.696 36.2334 44.5899 34.3396 44.5899 32.0034C44.5899 29.6673 42.696 27.7734 40.3599 27.7734C38.0237 27.7734 36.1299 29.6673 36.1299 32.0034C36.1299 34.3396 38.0237 36.2334 40.3599 36.2334Z" fill="white"/>
<path d="M39.7801 35.2125C41.4093 35.2125 42.7301 33.8917 42.7301 32.2625C42.7301 30.6333 41.4093 29.3125 39.7801 29.3125C38.1508 29.3125 36.8301 30.6333 36.8301 32.2625C36.8301 33.8917 38.1508 35.2125 39.7801 35.2125Z" fill="black"/>
<path d="M38.5502 36.7017C38.7402 36.7217 38.9202 36.8317 39.0202 37.0117C39.1702 37.3017 39.0702 37.6517 38.7802 37.8117C38.6502 37.8817 35.5802 39.4817 31.5402 37.9317C31.2402 37.8117 31.0802 37.4717 31.2002 37.1717C31.3202 36.8717 31.6602 36.7117 31.9602 36.8317C35.5002 38.1917 38.1902 36.7817 38.2202 36.7717C38.3202 36.7117 38.4402 36.6917 38.5502 36.7017Z" fill="black"/>
</g>
<defs>
<clipPath id="clip0_3090_76665">
<rect width="62.65" height="40.16" fill="white" transform="translate(4 15)"/>
</clipPath>
</defs>
</svg>
