<svg width="20" height="20" viewBox="0 0 20 20" fill="none" xmlns="http://www.w3.org/2000/svg">
<path fill-rule="evenodd" clip-rule="evenodd" d="M16.9588 15.1486C16.8186 14.6575 16.8715 14.1314 17.1067 13.6781C17.6769 12.5791 18 11.3302 18 10C18 5.58172 14.4183 2 10 2C5.58172 2 2 5.58172 2 10C2 14.4183 5.58172 18 10 18C11.7129 18 13.2946 17.4639 14.5942 16.5503C15.0712 16.215 15.6707 16.1045 16.2359 16.2478L17.3538 16.5312L16.9588 15.1486ZM15.7444 18.1865C14.119 19.3292 12.1378 20 10 20C4.47715 20 0 15.5228 0 10C0 4.47715 4.47715 0 10 0C15.5228 0 20 4.47715 20 10C20 11.6583 19.5963 13.2224 18.8819 14.5992L19.7516 17.6439C19.9645 18.3894 19.2996 19.0878 18.5562 18.8993L15.7444 18.1865Z" fill="#333333"/>
</svg>
