<svg width="70" height="70" viewBox="0 0 70 70" fill="none" xmlns="http://www.w3.org/2000/svg">
<g clip-path="url(#clip0_3090_76660)">
<path d="M58.94 39.1C58.94 43.89 55.05 47.78 50.26 47.78C49.91 47.78 49.56 47.76 49.22 47.72H11.68C6.89 47.72 3 43.84 3 39.04C3 35.5 5.12 32.45 8.16 31.11C8.55 27.43 10.94 24.34 14.22 22.94C15.52 18.35 19.74 15 24.74 15C28.22 15 31.32 16.62 33.33 19.16C36.46 19.17 39.27 20.5 41.26 22.61C42.2 22.34 43.2 22.2 44.23 22.2C49.85 22.2 54.48 26.44 55.1 31.89C57.42 33.45 58.94 36.1 58.94 39.1Z" fill="#333333"/>
<path d="M10.6904 42.7992C10.6904 47.5892 14.5804 51.4792 19.3704 51.4792C19.7204 51.4792 20.0704 51.4592 20.4104 51.4192H57.9504C62.7404 51.4192 66.6304 47.5392 66.6304 42.7392C66.6304 39.1992 64.5104 36.1492 61.4704 34.8092C61.0804 31.1292 58.6904 28.0392 55.4104 26.6392C54.1104 22.0592 49.8904 18.6992 44.8904 18.6992C41.4104 18.6992 38.3104 20.3192 36.3004 22.8592C33.1704 22.8692 30.3604 24.1992 28.3704 26.3092C27.4304 26.0392 26.4304 25.8992 25.4004 25.8992C19.7804 25.8992 15.1504 30.1392 14.5304 35.5892C12.2104 37.1492 10.6904 39.7992 10.6904 42.7992Z" fill="#858585"/>
<path d="M60.98 45.7094C60.98 50.4994 57.09 54.3894 52.3 54.3894C51.95 54.3894 51.6 54.3694 51.26 54.3294H13.72C8.93004 54.3294 5.04004 50.4494 5.04004 45.6494C5.04004 42.1094 7.16004 39.0594 10.2 37.7194C10.59 34.0394 12.98 30.9494 16.26 29.5494C17.56 24.9694 21.78 21.6094 26.78 21.6094C30.26 21.6094 33.36 23.2294 35.37 25.7694C38.5 25.7794 41.31 27.1094 43.3 29.2194C44.24 28.9494 45.24 28.8094 46.27 28.8094C51.89 28.8094 56.52 33.0494 57.14 38.4994C59.46 40.0594 60.98 42.7094 60.98 45.7094Z" fill="url(#paint0_linear_3090_76660)"/>
<path d="M31.9404 35.7414C31.9404 38.3114 29.8604 40.3914 27.2904 40.3914C24.7204 40.3914 22.6504 38.3114 22.6504 35.7414C22.6504 34.9014 22.8704 34.1214 23.2604 33.4414L31.9404 35.6214C31.9404 35.6214 31.9404 35.7014 31.9404 35.7414Z" fill="white"/>
<path d="M30.9707 35.4714C30.9707 37.4614 29.3607 39.0814 27.3607 39.0814C25.3607 39.0814 23.7607 37.4714 23.7607 35.4714C23.7607 34.8214 23.9307 34.2114 24.2307 33.6914L30.9607 35.3814C30.9607 35.3814 30.9607 35.4514 30.9607 35.4814L30.9707 35.4714Z" fill="black"/>
<path d="M34.0908 35.7414C34.0908 38.3114 36.1708 40.3914 38.7408 40.3914C41.3108 40.3914 43.3808 38.3114 43.3808 35.7414C43.3808 34.9014 43.1608 34.1214 42.7708 33.4414L34.0908 35.6214C34.0908 35.6214 34.0908 35.7014 34.0908 35.7414Z" fill="white"/>
<path d="M35.0605 35.4714C35.0605 37.4614 36.6705 39.0814 38.6705 39.0814C40.6705 39.0814 42.2705 37.4714 42.2705 35.4714C42.2705 34.8214 42.1005 34.2114 41.8005 33.6914L35.0705 35.3814C35.0705 35.3814 35.0705 35.4514 35.0705 35.4814L35.0605 35.4714Z" fill="black"/>
</g>
<defs>
<linearGradient id="paint0_linear_3090_76660" x1="3.55004" y1="22.2194" x2="60.19" y2="63.0894" gradientUnits="userSpaceOnUse">
<stop stop-color="#EBEBEB"/>
<stop offset="1" stop-color="#A3A3A3"/>
</linearGradient>
<clipPath id="clip0_3090_76660">
<rect width="63.63" height="39.39" fill="white" transform="translate(3 15)"/>
</clipPath>
</defs>
</svg>
