<svg width="22" height="22" viewBox="0 0 22 22" fill="none" xmlns="http://www.w3.org/2000/svg">
<path fill-rule="evenodd" clip-rule="evenodd" d="M0 17.6C0 16.9925 0.492487 16.5 1.1 16.5L20.9 16.5C21.5075 16.5 22 16.9925 22 17.6C22 18.2075 21.5075 18.7 20.9 18.7L1.1 18.7C0.492487 18.7 0 18.2075 0 17.6Z" fill="#333333"/>
<path fill-rule="evenodd" clip-rule="evenodd" d="M19.7999 18.6996H2.2084L2.2084 10.9197C2.14219 9.34649 2.45254 7.01513 3.69679 4.98781C5.04199 2.79598 7.41159 1.09961 11.0042 1.09961C12.5229 1.09961 14.6939 1.60219 16.528 3.11788C18.4512 4.70725 19.7999 7.2443 19.7999 10.8702V18.6996ZM4.4084 10.8702V16.4996H17.5999V10.8702C17.5999 4.81373 13.2027 3.29961 11.0042 3.29961C5.4344 3.29961 4.28625 8.34667 4.4084 10.8702Z" fill="#333333"/>
<path fill-rule="evenodd" clip-rule="evenodd" d="M6.60001 16.5H15.4V17.6C15.4 18.326 15.1912 19.3906 14.5327 20.3052C13.8338 21.276 12.6785 22 11 22C10.274 22 9.20943 21.7912 8.29477 21.1327C7.32403 20.4338 6.60001 19.2785 6.60001 17.6V16.5ZM9.02585 18.7C9.17153 18.9937 9.37214 19.1975 9.58024 19.3473C10.0406 19.6788 10.626 19.8 11 19.8C11.9615 19.8 12.4563 19.424 12.7473 19.0198C12.8205 18.9181 12.8835 18.8103 12.9372 18.7H9.02585Z" fill="#333333"/>
<path fill-rule="evenodd" clip-rule="evenodd" d="M11 0C11.6075 0 12.1 0.492487 12.1 1.1V2.2C12.1 2.80751 11.6075 3.3 11 3.3C10.3925 3.3 9.89999 2.80751 9.89999 2.2V1.1C9.89999 0.492487 10.3925 0 11 0Z" fill="#333333"/>
</svg>
