<svg width="70" height="70" viewBox="0 0 70 70" fill="none" xmlns="http://www.w3.org/2000/svg">
<g clip-path="url(#clip0_3090_76651)">
<path d="M63.9907 26.8745C63.9907 31.6756 61.3979 35.8834 57.5039 38.2109C57.3366 45.3942 51.361 51.1719 44.0006 51.1719C40.9431 51.1719 38.1179 50.177 35.8503 48.4884C33.4341 50.7611 30.1535 52.1394 26.5477 52.1394C19.6055 52.1394 13.8808 46.9915 13.1187 40.3649C8.88095 38.1287 6 33.7293 6 28.6726C6 21.3433 12.05 15.4013 19.5126 15.4013C19.9865 15.4013 20.4512 15.4196 20.9159 15.4743C22.5794 9.99783 27.7465 6 33.8709 6C39.5119 6 44.3538 9.40455 46.3705 14.233C47.6622 13.8314 49.0469 13.6032 50.4874 13.6032C57.95 13.6032 64 19.5452 64 26.8745H63.9907Z" fill="#858585"/>
<path d="M27.2071 27.2233C29.4038 27.2233 31.1846 25.4742 31.1846 23.3167C31.1846 21.1592 29.4038 19.4102 27.2071 19.4102C25.0103 19.4102 23.2295 21.1592 23.2295 23.3167C23.2295 25.4742 25.0103 27.2233 27.2071 27.2233Z" fill="white"/>
<path d="M37.7647 26.1178C39.9614 26.1178 41.7422 24.3688 41.7422 22.2112C41.7422 20.0537 39.9614 18.3047 37.7647 18.3047C35.5679 18.3047 33.7871 20.0537 33.7871 22.2112C33.7871 24.3688 35.5679 26.1178 37.7647 26.1178Z" fill="white"/>
<path d="M29.4935 30.2353C29.2426 30.2353 29.001 30.1166 28.8523 29.8975C28.62 29.5507 28.7222 29.0852 29.0753 28.857C29.2333 28.7566 33.025 26.3926 38.3873 27.926C38.7962 28.0447 39.0286 28.4554 38.9077 28.857C38.7869 29.2586 38.3687 29.4868 37.9598 29.3681C33.2574 28.0264 29.9396 30.0983 29.9024 30.1166C29.7723 30.1987 29.6329 30.2353 29.4842 30.2353H29.4935Z" fill="black"/>
<path d="M37.2166 25.343C38.8847 25.343 40.237 24.0149 40.237 22.3766C40.237 20.7383 38.8847 19.4102 37.2166 19.4102C35.5485 19.4102 34.1963 20.7383 34.1963 22.3766C34.1963 24.0149 35.5485 25.343 37.2166 25.343Z" fill="black"/>
<path d="M27.9325 26.2805C29.6006 26.2805 30.9528 24.9524 30.9528 23.3141C30.9528 21.6758 29.6006 20.3477 27.9325 20.3477C26.2644 20.3477 24.9121 21.6758 24.9121 23.3141C24.9121 24.9524 26.2644 26.2805 27.9325 26.2805Z" fill="black"/>
<path d="M22.2815 57.882C22.2629 59.0503 21.4265 59.9904 20.3763 59.9904C19.3262 59.9904 18.4805 59.0503 18.4805 57.882C18.4805 57.882 18.4805 57.8181 18.4805 57.6995C18.4805 57.6812 18.4805 57.6629 18.4805 57.6447C18.4805 57.6264 18.4805 57.6082 18.4805 57.5899C18.4898 57.5078 18.5083 57.4165 18.5362 57.307C18.5455 57.2613 18.5641 57.2066 18.5827 57.1518C18.5827 57.1244 18.6013 57.0879 18.6106 57.0514C18.7964 56.4855 19.1961 55.6366 20.0789 54.5779C20.2369 54.3953 20.4971 54.3862 20.6458 54.5779C20.6458 54.5779 22.2815 56.3577 22.2629 57.882H22.2815Z" fill="#E0E0E0"/>
<path d="M37.226 59.4336C37.2075 60.5562 36.4082 61.4599 35.3952 61.4599C34.3823 61.4599 33.5645 60.5562 33.5645 59.4336C33.5645 59.4336 33.5645 59.3788 33.5645 59.2601C33.5645 59.251 33.5645 59.2328 33.5645 59.2145C33.5645 59.2054 33.5645 59.178 33.5645 59.1597C33.5737 59.0867 33.5923 58.9954 33.6202 58.8859C33.6295 58.8403 33.6481 58.7946 33.6667 58.7399C33.6667 58.7125 33.6853 58.6851 33.6946 58.6486C33.8711 58.1009 34.2522 57.2886 35.1072 56.2663C35.2558 56.0929 35.5068 56.0838 35.6555 56.2663C35.6555 56.2663 37.226 57.9823 37.2075 59.4427L37.226 59.4336Z" fill="#E0E0E0"/>
<path d="M26.1762 63.593C26.1669 64.3688 25.6093 64.9986 24.9123 64.9986C24.2153 64.9986 23.6484 64.3688 23.6484 63.593C23.6484 63.593 23.6484 63.5564 23.6484 63.4743C23.6484 63.4652 23.6484 63.456 23.6484 63.4378C23.6484 63.4287 23.6484 63.4104 23.6484 63.4013C23.6484 63.3465 23.667 63.2826 23.6856 63.2096C23.6856 63.1822 23.7042 63.1457 23.7135 63.1092C23.7135 63.0909 23.7228 63.0727 23.7321 63.0453C23.8529 62.6711 24.1224 62.1052 24.7079 61.3932C24.8101 61.2746 24.9867 61.2654 25.0889 61.3932C25.0889 61.3932 26.1762 62.5798 26.1669 63.593H26.1762Z" fill="#E0E0E0"/>
<path d="M30.3208 56.0461C30.3115 56.8219 29.7539 57.4517 29.0569 57.4517C28.3599 57.4517 27.793 56.8219 27.793 56.0461C27.793 56.0461 27.793 56.0096 27.793 55.9274C27.793 55.9183 27.793 55.9092 27.793 55.8909C27.793 55.8818 27.793 55.8635 27.793 55.8544C27.793 55.7996 27.8116 55.7357 27.8301 55.6627C27.8301 55.6353 27.8487 55.5988 27.858 55.5623C27.858 55.5441 27.8673 55.5258 27.8766 55.4984C27.9974 55.1242 28.2669 54.5583 28.8524 53.8464C28.9546 53.7277 29.1312 53.7186 29.2334 53.8464C29.2334 53.8464 30.3208 55.0329 30.3115 56.0461H30.3208Z" fill="#E0E0E0"/>
<path d="M43.0151 54.8859C43.0058 55.6618 42.4482 56.2915 41.7512 56.2915C41.0542 56.2915 40.4873 55.6618 40.4873 54.8859C40.4873 54.8859 40.4873 54.8494 40.4873 54.7673C40.4873 54.7581 40.4873 54.749 40.4873 54.7307C40.4873 54.7216 40.4873 54.7034 40.4873 54.6942C40.4873 54.6395 40.5059 54.5756 40.5245 54.5026C40.5245 54.4752 40.5431 54.4387 40.5524 54.4022C40.5524 54.3839 40.5617 54.3657 40.5709 54.3383C40.6918 53.964 40.9613 53.3981 41.5467 52.6862C41.649 52.5675 41.8256 52.5584 41.9278 52.6862C41.9278 52.6862 43.0151 53.8728 43.0058 54.8859H43.0151Z" fill="#E0E0E0"/>
<path d="M48.9263 59.3952C48.917 60.4449 48.155 61.3028 47.2071 61.3028C46.2591 61.3028 45.4971 60.454 45.4971 59.3952C45.4971 59.3952 45.4971 59.3404 45.4971 59.2309C45.4971 59.2218 45.4971 59.2035 45.4971 59.1853C45.4971 59.1761 45.4971 59.1488 45.4971 59.1396C45.5064 59.0666 45.5249 58.9845 45.5435 58.8841C45.5528 58.8384 45.5714 58.7928 45.5807 58.7471C45.5807 58.7198 45.5993 58.6924 45.6086 58.6559C45.7759 58.1447 46.1383 57.378 46.9283 56.4196C47.0677 56.2553 47.3093 56.2462 47.4394 56.4196C47.4394 56.4196 48.917 58.0261 48.8984 59.4043L48.9263 59.3952Z" fill="#E0E0E0"/>
<path d="M55.6264 52.8976C55.6171 53.6735 55.0595 54.3033 54.3625 54.3033C53.6655 54.3033 53.0986 53.6735 53.0986 52.8976C53.0986 52.8976 53.0986 52.8611 53.0986 52.779C53.0986 52.7699 53.0986 52.7607 53.0986 52.7425C53.0986 52.7333 53.0986 52.7151 53.0986 52.706C53.0986 52.6512 53.1172 52.5873 53.1358 52.5143C53.1358 52.4869 53.1544 52.4504 53.1637 52.4139C53.1637 52.3956 53.173 52.3774 53.1823 52.35C53.3031 51.9758 53.5726 51.4099 54.1581 50.6979C54.2603 50.5793 54.4369 50.5701 54.5391 50.6979C54.5391 50.6979 55.6264 51.8845 55.6171 52.8976H55.6264Z" fill="#E0E0E0"/>
</g>
<defs>
<clipPath id="clip0_3090_76651">
<rect width="58" height="59" fill="white" transform="translate(6 6)"/>
</clipPath>
</defs>
</svg>
