<svg width="70" height="70" viewBox="0 0 70 70" fill="none" xmlns="http://www.w3.org/2000/svg">
<g clip-path="url(#clip0_3090_76652)">
<path d="M64 25.8768C64 30.6807 61.4074 34.878 57.5184 37.2153C57.3463 44.3963 51.371 50.175 44.0084 50.175C40.9499 50.175 38.1243 49.1804 35.8558 47.4896C33.4353 49.7573 30.1641 51.1497 26.5486 51.1497C19.6113 51.1497 13.8792 45.9976 13.1196 39.3736C8.8762 37.1357 6 32.7395 6 27.677C6 20.3468 12.0461 14.409 19.51 14.409C19.986 14.409 20.4519 14.4289 20.9178 14.4885C22.5787 8.99831 27.7538 5 33.8708 5C39.5219 5 44.3527 8.40155 46.3681 13.2353C47.6644 12.8275 49.0519 12.6087 50.4798 12.6087C57.9438 12.6087 63.9899 18.5565 63.9899 25.8768H64Z" fill="url(#paint0_linear_3090_76652)"/>
<path d="M27.2174 26.2239C29.4155 26.2239 31.1975 24.4738 31.1975 22.3151C31.1975 20.1563 29.4155 18.4062 27.2174 18.4062C25.0193 18.4062 23.2373 20.1563 23.2373 22.3151C23.2373 24.4738 25.0193 26.2239 27.2174 26.2239Z" fill="white"/>
<path d="M37.7701 25.1223C39.9683 25.1223 41.7502 23.3723 41.7502 21.2135C41.7502 19.0547 39.9683 17.3047 37.7701 17.3047C35.572 17.3047 33.79 19.0547 33.79 21.2135C33.79 23.3723 35.572 25.1223 37.7701 25.1223Z" fill="white"/>
<path d="M29.4959 29.2396C29.2427 29.2396 28.9996 29.1203 28.8578 28.9015C28.6249 28.5533 28.7262 28.0859 29.0807 27.8671C29.2427 27.7676 33.0304 25.4104 38.3979 26.9321C38.803 27.0515 39.036 27.4593 38.9144 27.8571C38.7929 28.255 38.3777 28.4837 37.9726 28.3644C33.2633 27.0217 29.9516 29.0904 29.9111 29.1103C29.7794 29.1899 29.6377 29.2297 29.4959 29.2297V29.2396Z" fill="black"/>
<path d="M37.2231 24.3341C38.8898 24.3341 40.241 23.0071 40.241 21.3702C40.241 19.7332 38.8898 18.4062 37.2231 18.4062C35.5563 18.4062 34.2051 19.7332 34.2051 21.3702C34.2051 23.0071 35.5563 24.3341 37.2231 24.3341Z" fill="black"/>
<path d="M27.936 25.2794C29.6027 25.2794 30.9539 23.9524 30.9539 22.3155C30.9539 20.6786 29.6027 19.3516 27.936 19.3516C26.2692 19.3516 24.918 20.6786 24.918 22.3155C24.918 23.9524 26.2692 25.2794 27.936 25.2794Z" fill="black"/>
<path d="M22.2851 56.8776C22.275 58.0413 21.4344 58.9862 20.3811 58.9862C19.3279 58.9862 18.4873 58.0413 18.4873 56.8776C18.4873 56.8776 18.4873 56.8179 18.4873 56.6986C18.4873 56.6886 18.4873 56.6688 18.4873 56.6489C18.4873 56.6389 18.4873 56.6091 18.4873 56.5892C18.4974 56.5096 18.5177 56.4102 18.5379 56.3007C18.5481 56.251 18.5683 56.2013 18.5785 56.1516C18.5785 56.1217 18.5987 56.0919 18.6088 56.0521C18.7911 55.4852 19.1962 54.6398 20.0773 53.5755C20.2394 53.3965 20.4925 53.3866 20.6445 53.5755C20.6445 53.5755 22.2851 55.3559 22.2648 56.8776H22.2851Z" fill="#9CE5FF"/>
<path d="M37.2332 58.4419C37.223 59.5658 36.4128 60.4709 35.4001 60.4709C34.3873 60.4709 33.5771 59.5658 33.5771 58.4419C33.5771 58.4419 33.5771 58.3822 33.5771 58.2628C33.5771 58.2529 33.5771 58.233 33.5771 58.2131C33.5771 58.2032 33.5771 58.1733 33.5771 58.1634C33.5873 58.0838 33.6075 57.9943 33.6278 57.8849C33.6379 57.8451 33.6582 57.7954 33.6683 57.7357C33.6683 57.7059 33.6886 57.676 33.6987 57.6462C33.8708 57.0991 34.2557 56.2836 35.1064 55.2591C35.2583 55.0801 35.5115 55.0701 35.6533 55.2591C35.6533 55.2591 37.2332 56.9798 37.2129 58.4419H37.2332Z" fill="#9CE5FF"/>
<path d="M26.1842 62.5978C26.1842 63.3736 25.6171 64.0002 24.9183 64.0002C24.2195 64.0002 23.6523 63.3736 23.6523 62.5978C23.6523 62.5978 23.6523 62.558 23.6523 62.4785C23.6523 62.4785 23.6523 62.4586 23.6523 62.4486C23.6523 62.4486 23.6523 62.4287 23.6523 62.4088C23.6523 62.3591 23.6726 62.2895 23.6929 62.2199C23.6929 62.19 23.7131 62.1602 23.7232 62.1204C23.7232 62.1005 23.7334 62.0806 23.7435 62.0607C23.865 61.6828 24.1283 61.1159 24.7157 60.4097C24.817 60.2903 24.9892 60.2804 25.1006 60.4097C25.1006 60.4097 26.1943 61.6032 26.1741 62.6078L26.1842 62.5978Z" fill="#9CE5FF"/>
<path d="M30.3258 55.047C30.3258 55.8228 29.7587 56.4494 29.0599 56.4494C28.3611 56.4494 27.7939 55.8228 27.7939 55.047C27.7939 55.047 27.7939 55.0073 27.7939 54.9277C27.7939 54.9277 27.7939 54.9078 27.7939 54.8978C27.7939 54.8978 27.7939 54.878 27.7939 54.8581C27.7939 54.8083 27.8142 54.7387 27.8345 54.6691C27.8345 54.6393 27.8547 54.6094 27.8648 54.5696C27.8648 54.5497 27.875 54.5298 27.8851 54.51C28.0066 54.132 28.2699 53.5651 28.8573 52.8589C28.9586 52.7396 29.1308 52.7296 29.2422 52.8589C29.2422 52.8589 30.3359 54.0524 30.3157 55.057L30.3258 55.047Z" fill="#9CE5FF"/>
<path d="M43.0162 53.883C43.0162 54.6588 42.4491 55.2854 41.7503 55.2854C41.0515 55.2854 40.4844 54.6588 40.4844 53.883C40.4844 53.883 40.4844 53.8432 40.4844 53.7636C40.4844 53.7636 40.4844 53.7437 40.4844 53.7338C40.4844 53.7338 40.4844 53.7139 40.4844 53.694C40.4844 53.6443 40.5046 53.5746 40.5249 53.505C40.5249 53.4752 40.5451 53.4453 40.5553 53.4056C40.5553 53.3857 40.5654 53.3658 40.5755 53.3459C40.6971 52.9679 40.9604 52.401 41.5478 51.6948C41.649 51.5755 41.8212 51.5655 41.9326 51.6948C41.9326 51.6948 43.0264 52.8884 43.0061 53.8929L43.0162 53.883Z" fill="#9CE5FF"/>
<path d="M48.9401 58.4017C48.9299 59.456 48.1704 60.3014 47.2184 60.3014C46.2664 60.3014 45.5068 59.446 45.5068 58.4017C45.5068 58.4017 45.5068 58.3519 45.5068 58.2326C45.5068 58.2226 45.5068 58.2028 45.5068 58.1829C45.5068 58.1729 45.5068 58.153 45.5068 58.1331C45.517 58.0635 45.5372 57.974 45.5575 57.8745C45.5676 57.8347 45.5879 57.785 45.598 57.7353C45.598 57.7055 45.6081 57.6856 45.6284 57.6458C45.7904 57.1385 46.155 56.3727 46.9551 55.4079C47.0968 55.2388 47.3298 55.2289 47.4716 55.4079C47.4716 55.4079 48.9502 57.0192 48.9299 58.3917L48.9401 58.4017Z" fill="#9CE5FF"/>
<path d="M55.6344 51.9064C55.6344 52.6822 55.0673 53.3088 54.3685 53.3088C53.6697 53.3088 53.1025 52.6822 53.1025 51.9064C53.1025 51.9064 53.1025 51.8666 53.1025 51.7871C53.1025 51.7871 53.1025 51.7672 53.1025 51.7572C53.1025 51.7572 53.1025 51.7373 53.1025 51.7174C53.1025 51.6677 53.1228 51.5981 53.143 51.5285C53.143 51.4986 53.1633 51.4688 53.1734 51.429C53.1734 51.4091 53.1836 51.3892 53.1937 51.3693C53.3152 50.9914 53.5785 50.4245 54.1659 49.7183C54.2672 49.5989 54.4394 49.589 54.5508 49.7183C54.5508 49.7183 55.6445 50.9118 55.6243 51.9164L55.6344 51.9064Z" fill="#9CE5FF"/>
</g>
<defs>
<linearGradient id="paint0_linear_3090_76652" x1="35.0051" y1="5" x2="35.0051" y2="51.1398" gradientUnits="userSpaceOnUse">
<stop offset="0.01" stop-color="#858585"/>
<stop offset="0.1" stop-color="#808080"/>
<stop offset="0.65" stop-color="#676767"/>
<stop offset="0.98" stop-color="#5E5E5E"/>
</linearGradient>
<clipPath id="clip0_3090_76652">
<rect width="58" height="59" fill="white" transform="translate(6 5)"/>
</clipPath>
</defs>
</svg>
