<svg width="70" height="70" viewBox="0 0 70 70" fill="none" xmlns="http://www.w3.org/2000/svg">
<g clip-path="url(#clip0_3090_76653)">
<path d="M54.76 30.4117C54.76 35.2717 51.07 39.2717 46.33 39.7617C46.01 39.7917 45.69 39.8117 45.36 39.8117H11.01C10.78 39.8117 10.55 39.8117 10.33 39.7817C5.67 39.4417 2 35.5517 2 30.8017C2 26.9517 4.41 23.6717 7.8 22.3817C8.34 18.2617 11.56 14.9817 15.66 14.3517C17.17 11.1917 20.4 9.01172 24.14 9.01172C27.88 9.01172 31.04 11.1417 32.57 14.2517C33.87 13.5617 35.36 13.1717 36.94 13.1717C41.61 13.1717 45.49 16.5817 46.21 21.0617C51.01 21.4917 54.77 25.5117 54.77 30.4217L54.76 30.4117Z" fill="url(#paint0_linear_3090_76653)"/>
<path d="M26.6302 27.874C24.7002 27.874 23.1502 27.324 22.3802 26.974C22.3102 26.954 22.2402 26.914 22.1802 26.854C22.0102 26.674 22.0202 26.404 22.1902 26.234C22.4002 26.024 22.6502 26.134 22.7402 26.174C23.9102 26.694 27.0102 27.734 30.4602 26.154C30.6802 26.054 30.9402 26.154 31.0402 26.374C31.1402 26.594 31.0402 26.854 30.8202 26.954C29.3302 27.644 27.9002 27.874 26.6302 27.874Z" fill="black"/>
<path d="M31.5704 28.1323C31.5004 28.1323 31.4304 28.1123 31.3604 28.0823C30.7404 27.7523 30.4104 27.3223 30.3604 26.8023C30.2804 25.8823 31.1904 25.1423 31.2904 25.0523C31.4804 24.9023 31.7604 24.9323 31.9104 25.1223C32.0604 25.3123 32.0304 25.5923 31.8404 25.7423C31.6704 25.8723 31.2104 26.3423 31.2404 26.7223C31.2604 26.9223 31.4404 27.1223 31.7804 27.3023C31.9904 27.4123 32.0804 27.6823 31.9604 27.9023C31.8804 28.0523 31.7304 28.1323 31.5704 28.1323Z" fill="black"/>
<path d="M24.2698 24.9202C24.2698 24.9202 24.2398 24.9202 24.2298 24.9102C24.0698 24.8702 23.9298 24.8302 23.7798 24.8002C23.6598 24.7702 23.5398 24.7402 23.4098 24.7102C21.8298 24.3702 20.5698 24.3102 19.5798 24.3702C19.4598 24.3702 19.3398 24.3802 19.2298 24.3902C19.1498 24.4002 19.0698 24.4102 18.9898 24.4102C18.6198 24.4502 18.3098 24.5202 18.0298 24.5802C17.8698 24.3502 17.7298 24.1002 17.6098 23.8302C16.7498 21.8102 17.6898 19.4702 19.7098 18.6102C21.7398 17.7502 24.0798 18.7002 24.9298 20.7202C25.5498 22.1702 25.2298 23.7802 24.2598 24.9002L24.2698 24.9202Z" fill="white"/>
<path d="M24.2296 24.9111C24.0696 24.8711 23.9296 24.8311 23.7796 24.8011C23.6596 24.7711 23.5396 24.7411 23.4096 24.7111C21.8296 24.3711 20.5696 24.3111 19.5796 24.3711C19.5596 24.3311 19.5396 24.2811 19.5196 24.2311C18.9196 22.8211 19.5796 21.1811 20.9896 20.5811C22.4096 19.9811 24.0396 20.6411 24.6396 22.0511C25.0596 23.0411 24.8596 24.1311 24.2296 24.9011V24.9111Z" fill="black"/>
<path d="M35.6196 23.2808C35.5196 23.5508 35.3996 23.8108 35.2496 24.0608C35.1896 24.0508 35.1296 24.0408 35.0696 24.0308C34.8396 24.0008 34.5796 23.9708 34.2896 23.9608C34.2296 23.9608 34.1796 23.9608 34.1196 23.9608C33.1296 23.9208 31.8296 24.0408 30.1996 24.4908C30.0996 24.5108 29.9996 24.5508 29.8996 24.5808C29.8196 24.6008 29.7396 24.6208 29.6596 24.6508C29.4596 24.7108 29.2596 24.7708 29.0496 24.8508C27.9996 23.8108 27.5696 22.2308 28.0796 20.7308C28.7896 18.6508 31.0596 17.5308 33.1396 18.2408C35.2196 18.9508 36.3396 21.2108 35.6296 23.3008L35.6196 23.2808Z" fill="white"/>
<path d="M35.1596 23.8305C35.1396 23.9005 35.1096 23.9605 35.0796 24.0305C34.8496 24.0005 34.5896 23.9705 34.2996 23.9605C34.2396 23.9605 34.1896 23.9605 34.1296 23.9605C33.1396 23.9205 31.8396 24.0405 30.2096 24.4905C29.7496 23.8005 29.5996 22.9005 29.8896 22.0505C30.3896 20.6005 31.9696 19.8205 33.4296 20.3105C34.8896 20.8105 35.6596 22.3905 35.1696 23.8405L35.1596 23.8305Z" fill="black"/>
<path d="M12.1502 44.1208C12.7909 44.1208 13.3102 43.6014 13.3102 42.9608C13.3102 42.3201 12.7909 41.8008 12.1502 41.8008C11.5096 41.8008 10.9902 42.3201 10.9902 42.9608C10.9902 43.6014 11.5096 44.1208 12.1502 44.1208Z" fill="#F5F5F5"/>
<path d="M28.3798 55.7127C29.4125 55.7127 30.2498 54.8754 30.2498 53.8427C30.2498 52.8099 29.4125 51.9727 28.3798 51.9727C27.347 51.9727 26.5098 52.8099 26.5098 53.8427C26.5098 54.8754 27.347 55.7127 28.3798 55.7127Z" fill="#F5F5F5"/>
<path d="M13.3104 51.4606C13.951 51.4606 14.4704 50.9413 14.4704 50.3006C14.4704 49.66 13.951 49.1406 13.3104 49.1406C12.6697 49.1406 12.1504 49.66 12.1504 50.3006C12.1504 50.9413 12.6697 51.4606 13.3104 51.4606Z" fill="#F5F5F5"/>
<path d="M27.3299 44.1208C27.9706 44.1208 28.4899 43.6014 28.4899 42.9608C28.4899 42.3201 27.9706 41.8008 27.3299 41.8008C26.6893 41.8008 26.1699 42.3201 26.1699 42.9608C26.1699 43.6014 26.6893 44.1208 27.3299 44.1208Z" fill="#F5F5F5"/>
<path d="M41.0604 45.8709L40.3604 46.8009C40.0704 46.5809 39.9004 46.2409 39.9004 45.8709C39.9004 45.2309 40.4204 44.7109 41.0604 44.7109C41.7004 44.7109 42.2204 45.2309 42.2204 45.8709C42.2204 46.5109 41.7004 47.0309 41.0604 47.0309C40.8904 47.0309 40.7304 46.9909 40.5704 46.9209L41.0604 45.8609V45.8709Z" fill="#F5F5F5"/>
<path d="M50.08 54.0409C50.9306 54.0409 51.62 53.3515 51.62 52.5009C51.62 51.6504 50.9306 50.9609 50.08 50.9609C49.2295 50.9609 48.54 51.6504 48.54 52.5009C48.54 53.3515 49.2295 54.0409 50.08 54.0409Z" fill="#F5F5F5"/>
<path d="M22.0799 51.0114C22.7206 51.0114 23.2399 50.4921 23.2399 49.8514C23.2399 49.2108 22.7206 48.6914 22.0799 48.6914C21.4393 48.6914 20.9199 49.2108 20.9199 49.8514C20.9199 50.4921 21.4393 51.0114 22.0799 51.0114Z" fill="#F5F5F5"/>
<path d="M38.87 52.9606C39.5106 52.9606 40.03 52.4413 40.03 51.8006C40.03 51.16 39.5106 50.6406 38.87 50.6406C38.2293 50.6406 37.71 51.16 37.71 51.8006C37.71 52.4413 38.2293 52.9606 38.87 52.9606Z" fill="#F5F5F5"/>
<path d="M46.62 57.5309C47.2606 57.5309 47.78 57.0116 47.78 56.3709C47.78 55.7303 47.2606 55.2109 46.62 55.2109C45.9793 55.2109 45.46 55.7303 45.46 56.3709C45.46 57.0116 45.9793 57.5309 46.62 57.5309Z" fill="#F5F5F5"/>
<path d="M47.03 43.7027C47.5768 43.7027 48.02 43.2594 48.02 42.7127C48.02 42.1659 47.5768 41.7227 47.03 41.7227C46.4833 41.7227 46.04 42.1659 46.04 42.7127C46.04 43.2594 46.4833 43.7027 47.03 43.7027Z" fill="#F5F5F5"/>
<path d="M66.9093 37.3108C66.1793 40.2908 63.9593 42.5208 61.2393 43.3908C60.0493 47.8308 55.5293 50.5308 51.0393 49.4308C49.1693 48.9708 47.5993 47.9408 46.4693 46.5508C44.6493 47.6008 42.4393 47.9708 40.2393 47.4408C35.9993 46.4108 33.2893 42.3608 33.8293 38.1308C31.5793 36.1108 30.4893 32.9508 31.2493 29.8008C32.3593 25.2508 36.9493 22.4508 41.5093 23.5608C41.7993 23.6308 42.0793 23.7108 42.3593 23.8208C44.1993 20.6608 47.9593 18.9508 51.6993 19.8608C55.1393 20.7008 57.5793 23.5308 58.0793 26.8308C58.9293 26.7708 59.8093 26.8308 60.6793 27.0508C65.2293 28.1608 68.0293 32.7508 66.9193 37.3108H66.9093Z" fill="url(#paint1_linear_3090_76653)"/>
<path d="M45.0098 32.1289C46.3905 32.1289 47.5098 31.0096 47.5098 29.6289C47.5098 28.2482 46.3905 27.1289 45.0098 27.1289C43.6291 27.1289 42.5098 28.2482 42.5098 29.6289C42.5098 31.0096 43.6291 32.1289 45.0098 32.1289Z" fill="white"/>
<path d="M51.6201 33.0117C53.0008 33.0117 54.1201 31.8924 54.1201 30.5117C54.1201 29.131 53.0008 28.0117 51.6201 28.0117C50.2394 28.0117 49.1201 29.131 49.1201 30.5117C49.1201 31.8924 50.2394 33.0117 51.6201 33.0117Z" fill="white"/>
<path d="M51.2594 32.3898C52.3087 32.3898 53.1594 31.5392 53.1594 30.4898C53.1594 29.4405 52.3087 28.5898 51.2594 28.5898C50.21 28.5898 49.3594 29.4405 49.3594 30.4898C49.3594 31.5392 50.21 32.3898 51.2594 32.3898Z" fill="black"/>
<path d="M44.7193 31.4016C45.7687 31.4016 46.6193 30.5509 46.6193 29.5016C46.6193 28.4522 45.7687 27.6016 44.7193 27.6016C43.67 27.6016 42.8193 28.4522 42.8193 29.5016C42.8193 30.5509 43.67 31.4016 44.7193 31.4016Z" fill="black"/>
<path d="M21.6596 44.679C21.4696 45.399 20.8196 45.859 20.1796 45.709C19.5396 45.559 19.1596 44.839 19.3396 44.119C19.3396 44.119 19.3396 44.079 19.3696 44.009C19.3696 44.009 19.3696 43.989 19.3796 43.979C19.3796 43.979 19.3796 43.959 19.3896 43.949C19.4096 43.899 19.4296 43.849 19.4696 43.779C19.4796 43.749 19.4996 43.719 19.5196 43.689C19.5196 43.669 19.5396 43.659 19.5496 43.629C19.7496 43.309 20.1196 42.839 20.8196 42.309C20.9396 42.219 21.0996 42.249 21.1696 42.389C21.1696 42.389 21.8996 43.739 21.6596 44.679Z" fill="#9CE5FF"/>
<path d="M35.7294 57.5399C35.5494 58.2399 34.9194 58.6799 34.3094 58.5299C33.6994 58.3799 33.3294 57.6899 33.4994 56.9999C33.4994 56.9999 33.4994 56.9599 33.5294 56.8899C33.5294 56.8899 33.5294 56.8699 33.5294 56.8599C33.5294 56.8599 33.5294 56.8399 33.5394 56.8299C33.5594 56.7899 33.5794 56.7299 33.6094 56.6699C33.6194 56.6399 33.6394 56.6199 33.6594 56.5899C33.6594 56.5699 33.6794 56.5599 33.6894 56.5399C33.8794 56.2299 34.2394 55.7799 34.9094 55.2699C35.0294 55.1799 35.1794 55.2099 35.2494 55.3499C35.2494 55.3499 35.9494 56.6499 35.7194 57.5599L35.7294 57.5399Z" fill="#9CE5FF"/>
<path d="M21.2793 54.4993C21.1593 54.9793 20.7193 55.2893 20.2893 55.1793C19.8593 55.0693 19.6093 54.5993 19.7293 54.1193C19.7293 54.1193 19.7293 54.0893 19.7493 54.0393C19.7493 54.0393 19.7493 54.0293 19.7493 54.0193C19.7493 54.0193 19.7493 54.0093 19.7493 53.9993C19.7593 53.9693 19.7793 53.9293 19.7993 53.8893C19.7993 53.8693 19.8193 53.8493 19.8293 53.8293C19.8293 53.8193 19.8393 53.8093 19.8493 53.7893C19.9793 53.5693 20.2293 53.2593 20.6993 52.9093C20.7793 52.8493 20.8893 52.8693 20.9293 52.9593C20.9293 52.9593 21.4193 53.8593 21.2493 54.4893L21.2793 54.4993Z" fill="#9CE5FF"/>
<path d="M32.7793 46.3313C32.6593 46.8113 32.2193 47.1213 31.7893 47.0113C31.3593 46.9013 31.1093 46.4313 31.2293 45.9513C31.2293 45.9513 31.2293 45.9213 31.2493 45.8713C31.2493 45.8713 31.2493 45.8613 31.2493 45.8513C31.2493 45.8513 31.2493 45.8413 31.2493 45.8313C31.2593 45.8013 31.2793 45.7613 31.2993 45.7213C31.2993 45.7013 31.3193 45.6813 31.3293 45.6613C31.3293 45.6513 31.3393 45.6413 31.3493 45.6213C31.4793 45.4013 31.7293 45.0913 32.1993 44.7413C32.2793 44.6813 32.3893 44.7013 32.4293 44.7913C32.4293 44.7913 32.9193 45.6913 32.7493 46.3213L32.7793 46.3313Z" fill="#9CE5FF"/>
<path d="M45.4892 53.3391C45.3692 53.8191 44.9292 54.1291 44.4992 54.0191C44.0692 53.9091 43.8192 53.4391 43.9392 52.9591C43.9392 52.9591 43.9392 52.9291 43.9592 52.8791C43.9592 52.8791 43.9592 52.8691 43.9592 52.8591C43.9592 52.8591 43.9592 52.8491 43.9592 52.8391C43.9692 52.8091 43.9892 52.7691 44.0092 52.7291C44.0092 52.7091 44.0292 52.6891 44.0392 52.6691C44.0392 52.6591 44.0492 52.6491 44.0592 52.6291C44.1892 52.4091 44.4392 52.0991 44.9092 51.7491C44.9892 51.6891 45.0992 51.7091 45.1392 51.7991C45.1392 51.7991 45.6292 52.6991 45.4592 53.3291L45.4892 53.3391Z" fill="#9CE5FF"/>
<path d="M55.37 59.38C55.2 60.03 54.61 60.45 54.03 60.31C53.45 60.17 53.11 59.53 53.27 58.87C53.27 58.87 53.27 58.84 53.3 58.77C53.3 58.77 53.3 58.75 53.3 58.74C53.3 58.74 53.3 58.72 53.31 58.71C53.33 58.67 53.35 58.62 53.38 58.56C53.39 58.54 53.41 58.51 53.43 58.48C53.43 58.47 53.45 58.45 53.46 58.43C53.64 58.14 53.97 57.71 54.61 57.24C54.72 57.16 54.87 57.19 54.93 57.31C54.93 57.31 55.59 58.53 55.37 59.38Z" fill="#9CE5FF"/>
<path d="M48.8509 33.5964C49.2038 32.8408 48.9786 31.9896 48.3481 31.6952C47.7176 31.4007 46.9204 31.7746 46.5676 32.5302C46.2147 33.2859 46.4399 34.1371 47.0704 34.4315C47.7009 34.726 48.4981 34.3521 48.8509 33.5964Z" fill="#FF7272"/>
<path d="M57.8594 52.2415C57.7394 52.7215 57.2993 53.0315 56.8693 52.9215C56.4393 52.8115 56.1894 52.3415 56.3094 51.8615C56.3094 51.8615 56.3094 51.8315 56.3294 51.7815C56.3294 51.7815 56.3294 51.7715 56.3294 51.7615C56.3294 51.7615 56.3294 51.7515 56.3294 51.7415C56.3394 51.7115 56.3594 51.6715 56.3794 51.6315C56.3794 51.6115 56.3994 51.5915 56.4094 51.5715C56.4094 51.5615 56.4194 51.5515 56.4294 51.5315C56.5594 51.3115 56.8093 51.0015 57.2793 50.6515C57.3593 50.5915 57.4693 50.6115 57.5093 50.7015C57.5093 50.7015 57.9994 51.6015 57.8294 52.2315L57.8594 52.2415Z" fill="#9CE5FF"/>
</g>
<defs>
<linearGradient id="paint0_linear_3090_76653" x1="15.38" y1="13.1817" x2="40.06" y2="46.1317" gradientUnits="userSpaceOnUse">
<stop stop-color="#F5F5F5"/>
<stop offset="0.22" stop-color="#F4F4EA"/>
<stop offset="0.59" stop-color="#F4F3DF"/>
<stop offset="1" stop-color="#F4F3DC"/>
</linearGradient>
<linearGradient id="paint1_linear_3090_76653" x1="30.8922" y1="33.435" x2="67.149" y2="35.5763" gradientUnits="userSpaceOnUse">
<stop offset="0.01" stop-color="#858585"/>
<stop offset="0.1" stop-color="#808080"/>
<stop offset="0.65" stop-color="#676767"/>
<stop offset="0.98" stop-color="#5E5E5E"/>
</linearGradient>
<clipPath id="clip0_3090_76653">
<rect width="65.15" height="51.33" fill="white" transform="translate(2 9)"/>
</clipPath>
</defs>
</svg>
