<svg width="70" height="70" viewBox="0 0 70 70" fill="none" xmlns="http://www.w3.org/2000/svg">
<g clip-path="url(#clip0_3090_76667)">
<path d="M67.56 33.5983C67.56 39.6383 62.97 44.6083 57.08 45.2083C56.69 45.2483 56.28 45.2683 55.88 45.2683H13.2C12.92 45.2683 12.63 45.2583 12.35 45.2283C6.56 44.7983 2 39.9783 2 34.0783C2 29.2983 5 25.2183 9.21 23.6083C9.88 18.4883 13.89 14.4083 18.98 13.6283C20.86 9.69828 24.87 6.98828 29.51 6.98828C34.15 6.98828 38.08 9.63828 39.98 13.4983C41.6 12.6383 43.45 12.1583 45.4 12.1583C51.21 12.1583 56.02 16.3983 56.92 21.9583C62.88 22.4883 67.55 27.4883 67.55 33.5883L67.56 33.5983Z" fill="#F5F5F5"/>
<path d="M29.5999 27.3775C29.3799 27.3175 29.1599 27.2675 28.9499 27.2175C28.7899 27.1775 28.6298 27.1475 28.4698 27.1075C26.1398 26.6075 24.3198 26.5675 22.9598 26.6975C22.8498 26.7075 22.7498 26.7175 22.6398 26.7275C22.1598 26.7775 21.7398 26.8675 21.3898 26.9575C21.1798 26.6575 20.9899 26.3275 20.8399 25.9675C19.7099 23.3075 20.9499 20.2275 23.6099 19.0975C26.2799 17.9675 29.3599 19.2075 30.4899 21.8775C31.2999 23.7875 30.8899 25.9175 29.5999 27.3875V27.3775Z" fill="white"/>
<path d="M28.9495 27.2188C28.7895 27.1788 28.6295 27.1488 28.4695 27.1088C26.1395 26.6088 24.3195 26.5688 22.9595 26.6988C22.8795 26.5788 22.8195 26.4488 22.7595 26.3088C21.9695 24.4488 22.8395 22.2988 24.6995 21.4988C26.5595 20.7088 28.7095 21.5788 29.5095 23.4388C30.0595 24.7488 29.7995 26.1888 28.9595 27.2088L28.9495 27.2188Z" fill="black"/>
<path d="M44.5395 25.2165C44.4095 25.5865 44.2495 25.9265 44.0595 26.2465C43.6995 26.1765 43.2795 26.1265 42.7995 26.1065C42.7195 26.1065 42.6495 26.1065 42.5795 26.1065C41.1995 26.0565 39.3495 26.2365 37.0095 26.9165C36.9095 26.9465 36.7995 26.9765 36.6995 27.0065C36.4395 27.0865 36.1695 27.1665 35.8995 27.2665C34.5195 25.8965 33.9495 23.8065 34.6195 21.8365C35.5495 19.0965 38.5395 17.6265 41.2695 18.5565C44.0095 19.4865 45.4795 22.4765 44.5495 25.2065L44.5395 25.2165Z" fill="white"/>
<path d="M42.7797 25.6283C42.7297 25.7983 42.6497 25.9583 42.5697 26.1083C41.1897 26.0583 39.3397 26.2383 36.9997 26.9183C36.8997 26.9483 36.7897 26.9783 36.6897 27.0083C35.7497 26.0483 35.3797 24.6183 35.8397 23.2583C36.4997 21.3483 38.5697 20.3183 40.4897 20.9683C42.4097 21.6183 43.4297 23.6983 42.7797 25.6183V25.6283Z" fill="black"/>
<path d="M32.5996 30.4483C30.1996 30.4483 28.2796 29.7583 27.3196 29.3383C27.2296 29.3083 27.1396 29.2583 27.0696 29.1883C26.8596 28.9683 26.8696 28.6283 27.0796 28.4183C27.3496 28.1583 27.6596 28.2983 27.7596 28.3483C29.2196 28.9983 33.0696 30.2883 37.3496 28.3183C37.6196 28.1883 37.9496 28.3183 38.0796 28.5883C38.2096 28.8583 38.0796 29.1883 37.8096 29.3183C35.9596 30.1683 34.1796 30.4683 32.5996 30.4683V30.4483Z" fill="black"/>
<path d="M38.7397 30.7689C38.6497 30.7689 38.5597 30.7489 38.4797 30.7089C37.7097 30.2989 37.2997 29.7689 37.2397 29.1189C37.1397 27.9789 38.2697 27.0489 38.3997 26.9489C38.6397 26.7589 38.9797 26.8089 39.1697 27.0389C39.3597 27.2789 39.3197 27.6189 39.0797 27.8089C38.8697 27.9789 38.2897 28.5489 38.3297 29.0189C38.3497 29.2689 38.5797 29.5089 38.9997 29.7389C39.2697 29.8789 39.3697 30.2089 39.2197 30.4789C39.1197 30.6589 38.9297 30.7689 38.7397 30.7689Z" fill="black"/>
<path d="M14.6099 50.6378C15.4052 50.6378 16.0499 49.9931 16.0499 49.1978C16.0499 48.4025 15.4052 47.7578 14.6099 47.7578C13.8146 47.7578 13.1699 48.4025 13.1699 49.1978C13.1699 49.9931 13.8146 50.6378 14.6099 50.6378Z" fill="#F5F5F5"/>
<path d="M24.12 55.1366C25.4069 55.1366 26.45 54.0934 26.45 52.8066C26.45 51.5197 25.4069 50.4766 24.12 50.4766C22.8332 50.4766 21.79 51.5197 21.79 52.8066C21.79 54.0934 22.8332 55.1366 24.12 55.1366Z" fill="#F5F5F5"/>
<path d="M16.0504 59.7589C16.8456 59.7589 17.4904 59.1142 17.4904 58.3189C17.4904 57.5236 16.8456 56.8789 16.0504 56.8789C15.2551 56.8789 14.6104 57.5236 14.6104 58.3189C14.6104 59.1142 15.2551 59.7589 16.0504 59.7589Z" fill="#F5F5F5"/>
<path d="M33.4703 50.6378C34.2656 50.6378 34.9103 49.9931 34.9103 49.1978C34.9103 48.4025 34.2656 47.7578 33.4703 47.7578C32.675 47.7578 32.0303 48.4025 32.0303 49.1978C32.0303 49.9931 32.675 50.6378 33.4703 50.6378Z" fill="#F5F5F5"/>
<path d="M41.0897 53.2692C42.1446 53.2692 42.9997 52.4141 42.9997 51.3592C42.9997 50.3044 42.1446 49.4492 41.0897 49.4492C40.0348 49.4492 39.1797 50.3044 39.1797 51.3592C39.1797 52.4141 40.0348 53.2692 41.0897 53.2692Z" fill="#F5F5F5"/>
<path d="M31.44 59.7589C32.2353 59.7589 32.88 59.1142 32.88 58.3189C32.88 57.5236 32.2353 56.8789 31.44 56.8789C30.6447 56.8789 30 57.5236 30 58.3189C30 59.1142 30.6447 59.7589 31.44 59.7589Z" fill="#F5F5F5"/>
<path d="M47.8101 61.6183C48.6054 61.6183 49.2501 60.9736 49.2501 60.1783C49.2501 59.383 48.6054 58.7383 47.8101 58.7383C47.0148 58.7383 46.3701 59.383 46.3701 60.1783C46.3701 60.9736 47.0148 61.6183 47.8101 61.6183Z" fill="#F5F5F5"/>
<path d="M57.9497 50.1084C58.629 50.1084 59.1797 49.5577 59.1797 48.8784C59.1797 48.1991 58.629 47.6484 57.9497 47.6484C57.2704 47.6484 56.7197 48.1991 56.7197 48.8784C56.7197 49.5577 57.2704 50.1084 57.9497 50.1084Z" fill="#F5F5F5"/>
</g>
<defs>
<clipPath id="clip0_3090_76667">
<rect width="65.56" height="54.63" fill="white" transform="translate(2 7)"/>
</clipPath>
</defs>
</svg>
