<svg width="70" height="70" viewBox="0 0 70 70" fill="none" xmlns="http://www.w3.org/2000/svg">
<g clip-path="url(#clip0_3090_76657)">
<path d="M67.56 34.5983C67.56 40.6383 62.97 45.6083 57.08 46.2083C56.69 46.2483 56.28 46.2683 55.88 46.2683H13.2C12.92 46.2683 12.63 46.2583 12.35 46.2283C6.56 45.7983 2 40.9783 2 35.0783C2 30.2983 5 26.2183 9.21 24.6083C9.88 19.4883 13.89 15.4083 18.98 14.6283C20.86 10.6983 24.87 7.98828 29.51 7.98828C34.15 7.98828 38.08 10.6383 39.98 14.4983C41.6 13.6383 43.45 13.1583 45.4 13.1583C51.21 13.1583 56.02 17.3983 56.92 22.9583C62.88 23.4883 67.55 28.4883 67.55 34.5883L67.56 34.5983Z" fill="url(#paint0_linear_3090_76657)"/>
<path d="M29.5999 28.3775C29.3799 28.3175 29.1599 28.2675 28.9499 28.2175C28.7899 28.1775 28.6298 28.1475 28.4698 28.1075C26.1398 27.6075 24.3198 27.5675 22.9598 27.6975C22.8498 27.7075 22.7498 27.7175 22.6398 27.7275C22.1598 27.7775 21.7398 27.8675 21.3898 27.9575C21.1798 27.6575 20.9899 27.3275 20.8399 26.9675C19.7099 24.3075 20.9499 21.2275 23.6099 20.0975C26.2799 18.9675 29.3599 20.2075 30.4899 22.8775C31.2999 24.7875 30.8899 26.9175 29.5999 28.3875V28.3775Z" fill="white"/>
<path d="M28.9495 28.2188C28.7895 28.1788 28.6295 28.1488 28.4695 28.1088C26.1395 27.6088 24.3195 27.5688 22.9595 27.6988C22.8795 27.5788 22.8195 27.4488 22.7595 27.3088C21.9695 25.4488 22.8395 23.2988 24.6995 22.4988C26.5595 21.7088 28.7095 22.5788 29.5095 24.4388C30.0595 25.7488 29.7995 27.1888 28.9595 28.2088L28.9495 28.2188Z" fill="black"/>
<path d="M44.5395 26.2165C44.4095 26.5865 44.2495 26.9265 44.0595 27.2465C43.6995 27.1765 43.2795 27.1265 42.7995 27.1065C42.7195 27.1065 42.6495 27.1065 42.5795 27.1065C41.1995 27.0565 39.3495 27.2365 37.0095 27.9165C36.9095 27.9465 36.7995 27.9765 36.6995 28.0065C36.4395 28.0865 36.1695 28.1665 35.8995 28.2665C34.5195 26.8965 33.9495 24.8065 34.6195 22.8365C35.5495 20.0965 38.5395 18.6265 41.2695 19.5565C44.0095 20.4865 45.4795 23.4765 44.5495 26.2065L44.5395 26.2165Z" fill="white"/>
<path d="M42.7797 26.6283C42.7297 26.7983 42.6497 26.9583 42.5697 27.1083C41.1897 27.0583 39.3397 27.2383 36.9997 27.9183C36.8997 27.9483 36.7897 27.9783 36.6897 28.0083C35.7497 27.0483 35.3797 25.6183 35.8397 24.2583C36.4997 22.3483 38.5697 21.3183 40.4897 21.9683C42.4097 22.6183 43.4297 24.6983 42.7797 26.6183V26.6283Z" fill="black"/>
<path d="M32.5996 31.4483C30.1996 31.4483 28.2796 30.7583 27.3196 30.3383C27.2296 30.3083 27.1396 30.2583 27.0696 30.1883C26.8596 29.9683 26.8696 29.6283 27.0796 29.4183C27.3496 29.1583 27.6596 29.2983 27.7596 29.3483C29.2196 29.9983 33.0696 31.2883 37.3496 29.3183C37.6196 29.1883 37.9496 29.3183 38.0796 29.5883C38.2096 29.8583 38.0796 30.1883 37.8096 30.3183C35.9596 31.1683 34.1796 31.4683 32.5996 31.4683V31.4483Z" fill="black"/>
<path d="M38.7397 31.7689C38.6497 31.7689 38.5597 31.7489 38.4797 31.7089C37.7097 31.2989 37.2997 30.7689 37.2397 30.1189C37.1397 28.9789 38.2697 28.0489 38.3997 27.9489C38.6397 27.7589 38.9797 27.8089 39.1697 28.0389C39.3597 28.2789 39.3197 28.6189 39.0797 28.8089C38.8697 28.9789 38.2897 29.5489 38.3297 30.0189C38.3497 30.2689 38.5797 30.5089 38.9997 30.7389C39.2697 30.8789 39.3697 31.2089 39.2197 31.4789C39.1197 31.6589 38.9297 31.7689 38.7397 31.7689Z" fill="black"/>
<path d="M14.6099 51.6378C15.4052 51.6378 16.0499 50.9931 16.0499 50.1978C16.0499 49.4025 15.4052 48.7578 14.6099 48.7578C13.8146 48.7578 13.1699 49.4025 13.1699 50.1978C13.1699 50.9931 13.8146 51.6378 14.6099 51.6378Z" fill="#F5F5F5"/>
<path d="M24.12 56.1366C25.4069 56.1366 26.45 55.0934 26.45 53.8066C26.45 52.5197 25.4069 51.4766 24.12 51.4766C22.8332 51.4766 21.79 52.5197 21.79 53.8066C21.79 55.0934 22.8332 56.1366 24.12 56.1366Z" fill="#F5F5F5"/>
<path d="M16.0504 60.7589C16.8456 60.7589 17.4904 60.1142 17.4904 59.3189C17.4904 58.5236 16.8456 57.8789 16.0504 57.8789C15.2551 57.8789 14.6104 58.5236 14.6104 59.3189C14.6104 60.1142 15.2551 60.7589 16.0504 60.7589Z" fill="#F5F5F5"/>
<path d="M33.4703 51.6378C34.2656 51.6378 34.9103 50.9931 34.9103 50.1978C34.9103 49.4025 34.2656 48.7578 33.4703 48.7578C32.675 48.7578 32.0303 49.4025 32.0303 50.1978C32.0303 50.9931 32.675 51.6378 33.4703 51.6378Z" fill="#F5F5F5"/>
<path d="M41.0897 54.2692C42.1446 54.2692 42.9997 53.4141 42.9997 52.3592C42.9997 51.3044 42.1446 50.4492 41.0897 50.4492C40.0348 50.4492 39.1797 51.3044 39.1797 52.3592C39.1797 53.4141 40.0348 54.2692 41.0897 54.2692Z" fill="#F5F5F5"/>
<path d="M31.44 60.7589C32.2353 60.7589 32.88 60.1142 32.88 59.3189C32.88 58.5236 32.2353 57.8789 31.44 57.8789C30.6447 57.8789 30 58.5236 30 59.3189C30 60.1142 30.6447 60.7589 31.44 60.7589Z" fill="#F5F5F5"/>
<path d="M47.8101 62.6183C48.6054 62.6183 49.2501 61.9736 49.2501 61.1783C49.2501 60.383 48.6054 59.7383 47.8101 59.7383C47.0148 59.7383 46.3701 60.383 46.3701 61.1783C46.3701 61.9736 47.0148 62.6183 47.8101 62.6183Z" fill="#F5F5F5"/>
<path d="M57.9497 51.1084C58.629 51.1084 59.1797 50.5577 59.1797 49.8784C59.1797 49.1991 58.629 48.6484 57.9497 48.6484C57.2704 48.6484 56.7197 49.1991 56.7197 49.8784C56.7197 50.5577 57.2704 51.1084 57.9497 51.1084Z" fill="#F5F5F5"/>
</g>
<defs>
<linearGradient id="paint0_linear_3090_76657" x1="18.62" y1="13.1983" x2="49.29" y2="54.1283" gradientUnits="userSpaceOnUse">
<stop stop-color="#F5F5F5"/>
<stop offset="0.22" stop-color="#F4F4EA"/>
<stop offset="0.59" stop-color="#F4F3DF"/>
<stop offset="1" stop-color="#F4F3DC"/>
</linearGradient>
<clipPath id="clip0_3090_76657">
<rect width="65.56" height="54.63" fill="white" transform="translate(2 8)"/>
</clipPath>
</defs>
</svg>
