<svg width="70" height="70" viewBox="0 0 70 70" fill="none" xmlns="http://www.w3.org/2000/svg">
<g clip-path="url(#clip0_3090_76654)">
<path d="M8.78976 33.5017L6.19976 31.0417C5.87976 30.7317 5.95976 30.2017 6.35976 30.0117L9.58976 28.4717C10.7198 27.9317 11.1698 26.5617 10.5698 25.4617L8.85976 22.3217C8.64976 21.9317 8.88976 21.4517 9.33976 21.3917L12.8898 20.9217C14.1298 20.7617 14.9798 19.5917 14.7498 18.3617L14.0998 14.8417C14.0198 14.4017 14.3998 14.0217 14.8398 14.1017L18.3598 14.7517C19.5898 14.9817 20.7598 14.1317 20.9198 12.8917L21.3898 9.34171C21.4498 8.90171 21.9298 8.65171 22.3198 8.86171L25.4598 10.5717C26.5598 11.1717 27.9298 10.7217 28.4698 9.59171L30.0098 6.36171C30.1998 5.96171 30.7398 5.87171 31.0398 6.20171L33.4998 8.79171C34.3598 9.70171 35.8098 9.70171 36.6698 8.79171L39.1298 6.20171C39.4398 5.88171 39.9698 5.96171 40.1598 6.36171L41.6998 9.59171C42.2398 10.7217 43.6098 11.1717 44.7098 10.5717L47.8498 8.86171C48.2398 8.65171 48.7198 8.89171 48.7798 9.34171L49.2498 12.8917C49.4098 14.1317 50.5798 14.9817 51.8098 14.7517L55.3298 14.1017C55.7698 14.0217 56.1498 14.4017 56.0698 14.8417L55.4198 18.3617C55.1898 19.5917 56.0398 20.7617 57.2798 20.9217L60.8298 21.3917C61.2698 21.4517 61.5198 21.9317 61.3098 22.3217L59.5998 25.4617C58.9998 26.5617 59.4498 27.9317 60.5798 28.4717L63.8098 30.0117C64.2098 30.2017 64.2998 30.7417 63.9698 31.0417L61.3798 33.5017C60.4698 34.3617 60.4698 35.8117 61.3798 36.6717L63.9698 39.1317C64.2898 39.4417 64.2098 39.9717 63.8098 40.1617L60.5798 41.7017C59.4498 42.2417 58.9998 43.6117 59.5998 44.7117L61.3098 47.8517C61.5198 48.2417 61.2798 48.7217 60.8298 48.7817L57.2798 49.2517C56.0398 49.4117 55.1898 50.5817 55.4198 51.8117L56.0698 55.3317C56.1498 55.7717 55.7698 56.1517 55.3298 56.0717L51.8098 55.4217C50.5798 55.1917 49.4098 56.0417 49.2498 57.2817L48.7798 60.8317C48.7198 61.2717 48.2398 61.5217 47.8498 61.3117L44.7098 59.6017C43.6098 59.0017 42.2398 59.4517 41.6998 60.5817L40.1598 63.8117C39.9698 64.2117 39.4298 64.3017 39.1298 63.9717L36.6698 61.3817C35.8098 60.4717 34.3598 60.4717 33.4998 61.3817L31.0398 63.9717C30.7298 64.2917 30.1998 64.2117 30.0098 63.8117L28.4698 60.5817C27.9298 59.4517 26.5598 59.0017 25.4598 59.6017L22.3198 61.3117C21.9298 61.5217 21.4498 61.2817 21.3898 60.8317L20.9198 57.2817C20.7598 56.0417 19.5898 55.1917 18.3598 55.4217L14.8398 56.0717C14.3998 56.1517 14.0198 55.7717 14.0998 55.3317L14.7498 51.8117C14.9798 50.5817 14.1298 49.4117 12.8898 49.2517L9.33976 48.7817C8.89976 48.7217 8.64976 48.2417 8.85976 47.8517L10.5698 44.7117C11.1698 43.6117 10.7198 42.2417 9.58976 41.7017L6.35976 40.1617C5.95976 39.9717 5.86976 39.4317 6.19976 39.1317L8.78976 36.6717C9.69976 35.8117 9.69976 34.3617 8.78976 33.5017Z" fill="url(#paint0_linear_3090_76654)"/>
<path d="M35.0801 58.0411C47.7606 58.0411 58.0401 47.7616 58.0401 35.0811C58.0401 22.4006 47.7606 12.1211 35.0801 12.1211C22.3997 12.1211 12.1201 22.4006 12.1201 35.0811C12.1201 47.7616 22.3997 58.0411 35.0801 58.0411Z" fill="url(#paint1_linear_3090_76654)"/>
<path d="M41.4001 29.9336C41.4001 32.3636 38.8701 34.3236 35.7601 34.3236C32.6501 34.3236 30.1201 32.3636 30.1201 29.9336H41.4001Z" fill="#FF7272"/>
<path d="M33.2705 29.9336H35.7705V30.8936C35.7705 31.3336 35.4205 31.6836 34.9805 31.6836H34.0605C33.6205 31.6836 33.2705 31.3336 33.2705 30.8936V29.9336Z" fill="white"/>
<path d="M35.7598 29.9336H38.2598V30.8936C38.2598 31.3336 37.9098 31.6836 37.4698 31.6836H36.5498C36.1098 31.6836 35.7598 31.3336 35.7598 30.8936V29.9336Z" fill="white"/>
<path d="M57.7901 20.4023H13.7301C12.9701 20.4023 12.3701 21.0123 12.3701 21.7623V22.4323C12.3701 23.1923 12.9801 23.7923 13.7301 23.7923H15.3201C16.7501 28.0823 20.7901 31.1723 25.5601 31.1723C30.3301 31.1723 34.0901 28.2823 35.6301 24.2223C37.1701 28.2923 41.1001 31.1723 45.7101 31.1723C50.3201 31.1723 54.5201 28.0823 55.9401 23.7923H57.8001C58.5501 23.7923 59.1601 23.1823 59.1601 22.4323V21.7623C59.1601 21.0023 58.5501 20.4023 57.8001 20.4023H57.7901ZM33.6901 23.7523C33.6901 23.7523 33.6901 23.7823 33.6801 23.8023C32.7401 27.2623 29.4101 29.8123 25.4601 29.8123C21.5101 29.8123 18.1801 27.2623 17.2401 23.8023C17.2401 23.7923 17.2401 23.7723 17.2301 23.7523C16.9601 22.7523 17.7501 21.7723 18.8401 21.7723H32.0801C33.1701 21.7723 33.9601 22.7523 33.6901 23.7523ZM53.9401 23.7523C53.9401 23.7523 53.9401 23.7823 53.9301 23.8023C52.9901 27.2623 49.6701 29.8123 45.7101 29.8123C41.7501 29.8123 38.4401 27.2623 37.4901 23.8023C37.4901 23.7923 37.4901 23.7723 37.4801 23.7523C37.2201 22.7523 38.0001 21.7723 39.0901 21.7723H52.3301C53.4301 21.7723 54.2101 22.7523 53.9401 23.7523Z" fill="#408CFF"/>
<path d="M33.69 23.7534C33.69 23.7534 33.69 23.7834 33.68 23.8034C32.74 27.2634 29.41 29.8134 25.46 29.8134C21.51 29.8134 18.18 27.2634 17.24 23.8034C17.24 23.7934 17.24 23.7734 17.23 23.7534C16.96 22.7534 17.75 21.7734 18.84 21.7734H32.08C33.17 21.7734 33.96 22.7534 33.69 23.7534Z" fill="black"/>
<path d="M53.94 23.7534C53.94 23.7534 53.94 23.7834 53.93 23.8034C52.99 27.2634 49.67 29.8134 45.71 29.8134C41.75 29.8134 38.44 27.2634 37.49 23.8034C37.49 23.7934 37.49 23.7734 37.48 23.7534C37.22 22.7534 38 21.7734 39.09 21.7734H52.33C53.43 21.7734 54.21 22.7534 53.94 23.7534Z" fill="black"/>
</g>
<defs>
<linearGradient id="paint0_linear_3090_76654" x1="14.2698" y1="14.2717" x2="55.8998" y2="55.9017" gradientUnits="userSpaceOnUse">
<stop stop-color="#FF8F89"/>
<stop offset="0.49" stop-color="#F87B77"/>
<stop offset="1" stop-color="#F46C69"/>
</linearGradient>
<linearGradient id="paint1_linear_3090_76654" x1="35.0801" y1="12.1211" x2="35.0801" y2="58.0511" gradientUnits="userSpaceOnUse">
<stop stop-color="#FFFD9B"/>
<stop offset="0.33" stop-color="#FFF58F"/>
<stop offset="0.9" stop-color="#FFEA80"/>
</linearGradient>
<clipPath id="clip0_3090_76654">
<rect width="58.17" height="58.17" fill="white" transform="translate(6 6)"/>
</clipPath>
</defs>
</svg>
