<svg width="70" height="70" viewBox="0 0 70 70" fill="none" xmlns="http://www.w3.org/2000/svg">
<g clip-path="url(#clip0_3090_76661)">
<mask id="mask0_3090_76661" style="mask-type:luminance" maskUnits="userSpaceOnUse" x="27" y="44" width="18" height="23">
<path d="M29.0803 44.6986L27.6503 50.4986C27.6003 50.7186 27.7503 50.9386 27.9703 50.9686L34.3103 51.8186C34.5603 51.8486 34.7103 52.1086 34.6203 52.3386L33.2003 55.9486C33.1103 56.1786 33.2503 56.4286 33.5003 56.4686L37.0803 57.0586C37.2903 57.0886 37.4303 57.2885 37.4003 57.5085L35.8603 66.2286C35.7903 66.6386 36.3303 66.8586 36.5603 66.5086L44.7203 54.0686C44.8703 53.8386 44.7403 53.5286 44.4703 53.4786L40.2503 52.7086C39.9903 52.6586 39.8503 52.3686 39.9803 52.1386L43.6003 45.7386C43.7403 45.4886 43.5703 45.1785 43.2903 45.1685L29.4803 44.4185C29.3003 44.4085 29.1303 44.5286 29.0903 44.7086L29.0803 44.6986Z" fill="white"/>
</mask>
<g mask="url(#mask0_3090_76661)">
<path d="M27.9298 44.3984L27.5898 44.6484V44.3984H27.9298Z" fill="#FFFD9B"/>
<path d="M29.3398 44.3984L27.5898 45.7084V44.6484L27.9298 44.3984H29.3398Z" fill="#FFFB99"/>
<path d="M30.7598 44.3984L27.5898 46.7684V45.7084L29.3398 44.3984H30.7598Z" fill="#FFF997"/>
<path d="M32.1698 44.3984L27.5898 47.8284V46.7684L30.7598 44.3984H32.1698Z" fill="#FFF794"/>
<path d="M33.5798 44.3984L27.5898 48.8884V47.8284L32.1698 44.3984H33.5798Z" fill="#FFF692"/>
<path d="M34.9998 44.3984L27.5898 49.9484V48.8884L33.5798 44.3984H34.9998Z" fill="#FFF491"/>
<path d="M36.4098 44.3984L27.5898 50.9984V49.9484L34.9998 44.3984H36.4098Z" fill="#FFF28F"/>
<path d="M37.8198 44.3984L27.5898 52.0584V50.9984L36.4098 44.3984H37.8198Z" fill="#FFF18D"/>
<path d="M39.2398 44.3984L27.5898 53.1184V52.0584L37.8198 44.3984H39.2398Z" fill="#FFEF8B"/>
<path d="M40.6498 44.3984L27.5898 54.1784V53.1184L39.2398 44.3984H40.6498Z" fill="#FFEE8A"/>
<path d="M42.0698 44.3984L27.5898 55.2384V54.1784L40.6498 44.3984H42.0698Z" fill="#FFED88"/>
<path d="M43.4798 44.3984L27.5898 56.2984V55.2384L42.0698 44.3984H43.4798Z" fill="#FFEB87"/>
<path d="M44.1998 44.3984L44.4498 44.7284L27.5998 57.3484H27.5898V56.2984L43.4798 44.3984H44.1998Z" fill="#FFEA85"/>
<path d="M44.4496 44.7266L44.8596 45.2766V45.4866L28.1096 58.0266L27.5996 57.3466L44.4496 44.7266Z" fill="#FFE984"/>
<path d="M44.8594 46.5483L28.6194 58.7083L28.1094 58.0283L44.8594 45.4883V46.5483Z" fill="#FFE883"/>
<path d="M44.8601 47.5969L29.1301 59.3869L28.6201 58.7069L44.8601 46.5469V47.5969Z" fill="#FFE782"/>
<path d="M44.8599 48.6577L29.6299 60.0677L29.1299 59.3877L44.8599 47.5977V48.6577Z" fill="#FFE680"/>
<path d="M44.8599 49.7202L30.1399 60.7502L29.6299 60.0702L44.8599 48.6602V49.7202Z" fill="#FFE57F"/>
<path d="M44.8596 50.7787L30.6496 61.4287L30.1396 60.7487L44.8596 49.7188V50.7787Z" fill="#FFE57E"/>
<path d="M44.8594 51.8373L31.1594 62.0973L30.6494 61.4273L44.8594 50.7773V51.8373Z" fill="#FFE47E"/>
<path d="M44.8602 52.8998L31.6702 62.7798L31.1602 62.0998L44.8602 51.8398V52.8998Z" fill="#FFE37D"/>
<path d="M44.8599 53.9584L32.1699 63.4584L31.6699 62.7784L44.8599 52.8984V53.9584Z" fill="#FFE27C"/>
<path d="M44.8599 55.017L32.6799 64.137L32.1699 63.457L44.8599 53.957V55.017Z" fill="#FFE27B"/>
<path d="M44.8597 56.0795L33.1897 64.8195L32.6797 64.1395L44.8597 55.0195V56.0795Z" fill="#FFE17B"/>
<path d="M44.8595 57.1381L33.6995 65.4981L33.1895 64.8181L44.8595 56.0781V57.1381Z" fill="#FFE17A"/>
<path d="M44.8602 58.1967L34.2102 66.1667L33.7002 65.4967L44.8602 57.1367V58.1967Z" fill="#FFE17A"/>
<path d="M44.86 59.2592L34.72 66.8492H34.71L34.21 66.1692L44.86 58.1992V59.2592Z" fill="#FFE079"/>
<path d="M44.8597 60.3178L36.1297 66.8478H34.7197L44.8597 59.2578V60.3178Z" fill="#FFE079"/>
<path d="M44.8599 61.3703L37.5499 66.8503H36.1299L44.8599 60.3203V61.3703Z" fill="#FFE079"/>
<path d="M44.8598 62.4272L38.9598 66.8472H37.5498L44.8598 61.3672V62.4272Z" fill="#FFDF78"/>
<path d="M44.86 63.4897L40.38 66.8497H38.96L44.86 62.4297V63.4897Z" fill="#FFDF78"/>
<path d="M44.8599 64.5483L41.7899 66.8483H40.3799L44.8599 63.4883V64.5483Z" fill="#FFDF78"/>
<path d="M44.86 65.6069L43.2 66.8469H41.79L44.86 64.5469V65.6069Z" fill="#FFDF78"/>
<path d="M44.8602 66.6694L44.6202 66.8494H43.2002L44.8602 65.6094V66.6694Z" fill="#FFDF78"/>
<path d="M44.6201 66.848L44.8601 66.668V66.848H44.6201Z" fill="#FFDF78"/>
</g>
<path d="M64.79 28.81C64.79 34.84 60.68 39.93 55.11 41.4C53.32 46.44 48.5 50.04 42.86 50.04C39.76 50.04 36.91 48.96 34.68 47.15C32.82 48.19 30.68 48.77 28.4 48.77C22.3 48.77 17.17 44.57 15.77 38.9C15.64 38.9 15.51 38.9 15.38 38.9C10.2 38.9 6 34.7 6 29.52C6 24.68 9.66 20.71 14.36 20.2C14.58 13.66 19.95 8.43 26.56 8.43C28.26 8.43 29.87 8.78 31.34 9.41C33.52 6.15 37.25 4 41.48 4C48.13 4 53.54 9.31 53.68 15.92C59.98 16.84 64.8 22.26 64.8 28.81H64.79Z" fill="url(#paint0_linear_3090_76661)"/>
<path d="M25.0998 24.5805C24.9098 24.5805 24.7298 24.4705 24.6498 24.2805C24.5398 24.0305 24.6498 23.7505 24.9098 23.6405L33.1198 20.1205C33.3698 20.0105 33.6498 20.1205 33.7598 20.3805C33.8698 20.6305 33.7598 20.9105 33.4998 21.0205L25.2898 24.5405C25.2298 24.5705 25.1598 24.5805 25.0998 24.5805Z" fill="black"/>
<path d="M47.8002 24.5788C47.7402 24.5788 47.6702 24.5688 47.6102 24.5388L39.4002 21.0188C39.1502 20.9088 39.0402 20.6288 39.1402 20.3788C39.2502 20.1288 39.5302 20.0188 39.7802 20.1188L47.9902 23.6388C48.2402 23.7488 48.3502 24.0288 48.2502 24.2788C48.1702 24.4588 47.9902 24.5788 47.8002 24.5788Z" fill="black"/>
<path d="M30.5997 27.0191C30.4797 27.0191 30.3497 26.9691 30.2597 26.8791C30.0697 26.6891 30.0697 26.3791 30.2597 26.1891L31.8197 24.6291C32.3097 24.1391 33.1197 24.1291 33.6197 24.6291L34.6497 25.5791C34.7897 25.7191 34.9697 25.7091 35.0797 25.5891L36.0097 24.7391C36.4597 24.2891 37.3097 24.2691 37.7897 24.7491L38.5197 25.4791C38.6297 25.5891 38.8197 25.5891 38.9397 25.4791L39.7597 24.6591C40.2397 24.1791 41.0797 24.1791 41.5597 24.6591L43.0597 26.1591C43.2497 26.3491 43.2497 26.6591 43.0597 26.8491C42.8697 27.0391 42.5597 27.0391 42.3697 26.8491L40.8697 25.3491C40.7597 25.2291 40.5697 25.2391 40.4497 25.3491L39.6297 26.1691C39.1497 26.6491 38.3197 26.6491 37.8397 26.1691L37.1097 25.4391C36.9997 25.3291 36.8097 25.3291 36.6997 25.4391L35.7697 26.2891C35.3197 26.7391 34.4697 26.7591 33.9897 26.2791L32.9597 25.3291C32.8297 25.1991 32.6397 25.1991 32.5297 25.3191L30.9697 26.8791C30.8697 26.9791 30.7497 27.0191 30.6297 27.0191H30.5997Z" fill="black"/>
</g>
<defs>
<linearGradient id="paint0_linear_3090_76661" x1="53.5" y1="10.96" x2="18.53" y2="45.93" gradientUnits="userSpaceOnUse">
<stop stop-color="#EBEBEB"/>
<stop offset="1" stop-color="#A3A3A3"/>
</linearGradient>
<clipPath id="clip0_3090_76661">
<rect width="58.79" height="62.85" fill="white" transform="translate(6 4)"/>
</clipPath>
</defs>
</svg>
