<svg width="70" height="70" viewBox="0 0 70 70" fill="none" xmlns="http://www.w3.org/2000/svg">
<g clip-path="url(#clip0_3090_76670)">
<path d="M29.2837 41.5319L28.147 46.1476C28.1058 46.3213 28.2212 46.495 28.4024 46.5198L33.4185 47.1898C33.6162 47.2146 33.7315 47.4214 33.6574 47.6034L32.5372 50.4737C32.4631 50.6557 32.5784 50.8542 32.7678 50.8873L35.6013 51.3505C35.766 51.3753 35.8813 51.5407 35.8484 51.7062L34.6293 58.6462C34.5717 58.9687 35 59.1425 35.1812 58.8695L41.647 48.9765C41.7623 48.7945 41.6635 48.5464 41.4493 48.5133L38.1135 47.9012C37.9075 47.8598 37.8005 47.6365 37.9075 47.4545L40.7739 42.3674C40.881 42.1689 40.7492 41.929 40.5268 41.9124L29.5967 41.3086C29.4484 41.3086 29.3166 41.3996 29.2837 41.5402V41.5319Z" fill="#D6D6D6"/>
<path d="M62 35.3677C62 40.0164 58.2441 43.78 53.6232 43.78C53.2855 43.78 52.9396 43.7635 52.6184 43.7138H16.3768C11.7477 43.7138 8 39.9502 8 35.3015C8 31.8687 10.0427 28.9157 12.9832 27.6088C13.3621 24.0354 15.6602 21.041 18.8313 19.6927C20.0833 15.2508 24.1605 12 28.9872 12C32.3478 12 35.3377 13.5716 37.2733 16.0366C40.2962 16.0449 43.0143 17.3353 44.9253 19.3867C45.8395 19.122 46.795 18.9896 47.7916 18.9896C53.2196 18.9896 57.6922 23.0924 58.2852 28.3863C60.5256 29.9 62 32.4643 62 35.3759V35.3677Z" fill="#EBEBEB"/>
<path d="M33.9542 25.6982C33.9542 28.188 31.9444 30.2063 29.4652 30.2063C26.9859 30.2063 24.9844 28.188 24.9844 25.6982C24.9844 24.8876 25.1985 24.1266 25.5692 23.4648L33.9459 25.5741C33.9459 25.5741 33.9459 25.6569 33.9459 25.6982H33.9542Z" fill="white"/>
<path d="M33.0235 25.4436C33.0235 27.371 31.4668 28.9426 29.5394 28.9426C27.612 28.9426 26.0635 27.3792 26.0635 25.4436C26.0635 24.815 26.2282 24.2194 26.5165 23.7148L33.0153 25.3526C33.0153 25.3526 33.0153 25.4188 33.0153 25.4436H33.0235Z" fill="black"/>
<path d="M36.0381 25.6982C36.0381 28.188 38.0478 30.2063 40.5271 30.2063C43.0064 30.2063 45.0079 28.188 45.0079 25.6982C45.0079 24.8876 44.7937 24.1266 44.4231 23.4648L36.0463 25.5741C36.0463 25.5741 36.0463 25.6569 36.0463 25.6982H36.0381Z" fill="white"/>
<path d="M36.9688 25.4436C36.9688 27.371 38.5255 28.9426 40.4529 28.9426C42.3803 28.9426 43.9288 27.3792 43.9288 25.4436C43.9288 24.815 43.7641 24.2194 43.4758 23.7148L36.977 25.3526C36.977 25.3526 36.977 25.4188 36.977 25.4436H36.9688Z" fill="black"/>
<path d="M32.4799 29.9731H37.5702C37.6279 29.9731 37.6855 29.9979 37.7267 30.0393L39.1023 31.4207C39.2423 31.5613 39.1434 31.7929 38.9458 31.7929H37.5208C37.4384 31.7929 37.3643 31.7433 37.3231 31.6688L37.0678 31.1477V31.7846H33.6413L33.5178 31.3131L33.4354 31.7846H30.9067C30.709 31.7846 30.6102 31.5365 30.7667 31.4041L32.3399 30.0227C32.3399 30.0227 32.4305 29.9648 32.4799 29.9648V29.9731Z" fill="black"/>
<path d="M18.5261 49.951C18.5096 51.2001 17.6283 52.2175 16.5245 52.2175C15.4208 52.2175 14.5312 51.2083 14.5312 49.951C14.5312 49.951 14.5313 49.8849 14.5395 49.7525C14.5395 49.736 14.5395 49.7194 14.5395 49.6946C14.5395 49.6781 14.5395 49.6533 14.5477 49.6367C14.5642 49.554 14.5807 49.4465 14.6054 49.3307C14.6219 49.281 14.6383 49.2231 14.6548 49.1652C14.6548 49.1321 14.6713 49.0991 14.6877 49.0577C14.8772 48.4539 15.2973 47.5357 16.228 46.3942C16.3928 46.1957 16.6646 46.1874 16.8293 46.3942C16.8293 46.3942 18.5508 48.305 18.5261 49.9428V49.951Z" fill="#E0E0E0"/>
<path d="M24.6136 56.6278C24.6054 57.4632 24.0205 58.1415 23.2792 58.1415C22.5379 58.1415 21.9531 57.4632 21.9531 56.6278C21.9531 56.6278 21.9531 56.5864 21.9531 56.4955C21.9531 56.4872 21.9531 56.4706 21.9531 56.4624C21.9531 56.4541 21.9531 56.4376 21.9531 56.421C21.9614 56.3631 21.9696 56.2969 21.9943 56.2142C22.0025 56.1811 22.0108 56.148 22.0273 56.1067C22.0273 56.0901 22.0355 56.0653 22.0437 56.0405C22.1673 55.6352 22.4556 55.0314 23.0651 54.2704C23.1722 54.138 23.3616 54.1297 23.4687 54.2704C23.4687 54.2704 24.6136 55.5442 24.5971 56.6361L24.6136 56.6278Z" fill="#E0E0E0"/>
<path d="M30.2972 51.663C30.2889 52.4984 29.7041 53.1767 28.9628 53.1767C28.2215 53.1767 27.6367 52.4984 27.6367 51.663C27.6367 51.663 27.6367 51.6216 27.6367 51.5306C27.6367 51.5223 27.6367 51.5058 27.6367 51.4975C27.6367 51.4893 27.6367 51.4727 27.6367 51.4562C27.645 51.3983 27.6532 51.3321 27.6779 51.2494C27.6861 51.2163 27.6944 51.1832 27.7108 51.1418C27.7108 51.1253 27.7191 51.1005 27.7273 51.0757C27.8509 50.6704 28.1392 50.0665 28.7487 49.3055C28.8558 49.1732 29.0452 49.1649 29.1523 49.3055C29.1523 49.3055 30.2972 50.5794 30.2807 51.6712L30.2972 51.663Z" fill="#E0E0E0"/>
<path d="M45.263 47.7255C45.2548 48.5609 44.67 49.2392 43.9287 49.2392C43.1873 49.2392 42.6025 48.5609 42.6025 47.7255C42.6025 47.7255 42.6025 47.6841 42.6025 47.5931C42.6025 47.5848 42.6025 47.5683 42.6025 47.56C42.6025 47.5518 42.6025 47.5352 42.6025 47.5187C42.6108 47.4608 42.619 47.3946 42.6437 47.3119C42.652 47.2788 42.6602 47.2457 42.6767 47.2043C42.6767 47.1878 42.6849 47.163 42.6931 47.1382C42.8167 46.7328 43.105 46.129 43.7145 45.368C43.8216 45.2357 44.011 45.2274 44.1181 45.368C44.1181 45.368 45.263 46.6419 45.2465 47.7337L45.263 47.7255Z" fill="#E0E0E0"/>
<path d="M48.5169 54.6997C48.5004 55.8329 47.7097 56.7428 46.713 56.7428C45.7164 56.7428 44.9092 55.8329 44.9092 54.6997C44.9092 54.6997 44.9092 54.6418 44.9092 54.5177C44.9092 54.5012 44.9092 54.4846 44.9092 54.4681C44.9092 54.4515 44.9092 54.435 44.9092 54.4184C44.9174 54.344 44.9339 54.253 44.9586 54.1455C44.9668 54.1041 44.9833 54.0545 44.9998 53.9966C44.9998 53.9718 45.0163 53.9387 45.0245 53.9056C45.1975 53.3597 45.5764 52.5325 46.4165 51.5068C46.5648 51.3248 46.8119 51.3165 46.9601 51.5068C46.9601 51.5068 48.5086 53.2356 48.4922 54.708L48.5169 54.6997Z" fill="#E0E0E0"/>
<path d="M55.5511 47.7255C55.5429 48.5609 54.958 49.2392 54.2167 49.2392C53.4754 49.2392 52.8906 48.5609 52.8906 47.7255C52.8906 47.7255 52.8906 47.6841 52.8906 47.5931C52.8906 47.5848 52.8906 47.5683 52.8906 47.56C52.8906 47.5518 52.8906 47.5352 52.8906 47.5187C52.8989 47.4608 52.9071 47.3946 52.9318 47.3119C52.94 47.2788 52.9483 47.2457 52.9648 47.2043C52.9648 47.1878 52.973 47.163 52.9812 47.1382C53.1048 46.7328 53.3931 46.129 54.0026 45.368C54.1097 45.2357 54.2991 45.2274 54.4062 45.368C54.4062 45.368 55.5511 46.6419 55.5346 47.7337L55.5511 47.7255Z" fill="#E0E0E0"/>
</g>
<defs>
<clipPath id="clip0_3090_76670">
<rect width="54" height="47" fill="white" transform="translate(8 12)"/>
</clipPath>
</defs>
</svg>
