<svg width="70" height="70" viewBox="0 0 70 70" fill="none" xmlns="http://www.w3.org/2000/svg">
<g clip-path="url(#clip0_3090_76666)">
<path d="M29.23 44.3598L27.85 49.9398C27.8 50.1498 27.94 50.3598 28.16 50.3898L34.25 51.1998C34.49 51.2298 34.63 51.4798 34.54 51.6998L33.18 55.1698C33.09 55.3898 33.23 55.6298 33.46 55.6698L36.9 56.2298C37.1 56.2598 37.24 56.4598 37.2 56.6598L35.72 65.0498C35.65 65.4398 36.17 65.6498 36.39 65.3198L44.24 53.3598C44.38 53.1398 44.26 52.8398 44 52.7998L39.95 52.0598C39.7 52.0098 39.57 51.7398 39.7 51.5198L43.18 45.3698C43.31 45.1298 43.15 44.8398 42.88 44.8198L29.61 44.0898C29.43 44.0898 29.27 44.1998 29.23 44.3698V44.3598Z" fill="#D6D6D6"/>
<path d="M64.79 28.81C64.79 34.84 60.68 39.93 55.11 41.4C53.32 46.44 48.5 50.04 42.86 50.04C39.76 50.04 36.91 48.96 34.68 47.15C32.82 48.19 30.68 48.77 28.4 48.77C22.3 48.77 17.17 44.57 15.77 38.9C15.64 38.9 15.51 38.9 15.38 38.9C10.2 38.9 6 34.7 6 29.52C6 24.68 9.66 20.71 14.36 20.2C14.58 13.66 19.95 8.43 26.56 8.43C28.26 8.43 29.87 8.78 31.34 9.41C33.52 6.15 37.25 4 41.48 4C48.13 4 53.54 9.31 53.68 15.92C59.98 16.84 64.8 22.26 64.8 28.81H64.79Z" fill="#F5F5F5"/>
<path d="M25.0998 24.5805C24.9098 24.5805 24.7298 24.4705 24.6498 24.2805C24.5398 24.0305 24.6498 23.7505 24.9098 23.6405L33.1198 20.1205C33.3698 20.0105 33.6498 20.1205 33.7598 20.3805C33.8698 20.6305 33.7598 20.9105 33.4998 21.0205L25.2898 24.5405C25.2298 24.5705 25.1598 24.5805 25.0998 24.5805Z" fill="black"/>
<path d="M47.8002 24.5788C47.7402 24.5788 47.6702 24.5688 47.6102 24.5388L39.4002 21.0188C39.1502 20.9088 39.0402 20.6288 39.1402 20.3788C39.2502 20.1288 39.5302 20.0188 39.7802 20.1188L47.9902 23.6388C48.2402 23.7488 48.3502 24.0288 48.2502 24.2788C48.1702 24.4588 47.9902 24.5788 47.8002 24.5788Z" fill="black"/>
<path d="M30.5997 27.0191C30.4797 27.0191 30.3497 26.9691 30.2597 26.8791C30.0697 26.6891 30.0697 26.3791 30.2597 26.1891L31.8197 24.6291C32.3097 24.1391 33.1197 24.1291 33.6197 24.6291L34.6497 25.5791C34.7897 25.7191 34.9697 25.7091 35.0797 25.5891L36.0097 24.7391C36.4597 24.2891 37.3097 24.2691 37.7897 24.7491L38.5197 25.4791C38.6297 25.5891 38.8197 25.5891 38.9397 25.4791L39.7597 24.6591C40.2397 24.1791 41.0797 24.1791 41.5597 24.6591L43.0597 26.1591C43.2497 26.3491 43.2497 26.6591 43.0597 26.8491C42.8697 27.0391 42.5597 27.0391 42.3697 26.8491L40.8697 25.3491C40.7597 25.2291 40.5697 25.2391 40.4497 25.3491L39.6297 26.1691C39.1497 26.6491 38.3197 26.6491 37.8397 26.1691L37.1097 25.4391C36.9997 25.3291 36.8097 25.3291 36.6997 25.4391L35.7697 26.2891C35.3197 26.7391 34.4697 26.7591 33.9897 26.2791L32.9597 25.3291C32.8297 25.1991 32.6397 25.1991 32.5297 25.3191L30.9697 26.8791C30.8697 26.9791 30.7497 27.0191 30.6297 27.0191H30.5997Z" fill="black"/>
</g>
<defs>
<clipPath id="clip0_3090_76666">
<rect width="58.79" height="61.48" fill="white" transform="translate(6 4)"/>
</clipPath>
</defs>
</svg>
