<svg width="70" height="70" viewBox="0 0 70 70" fill="none" xmlns="http://www.w3.org/2000/svg">
<g clip-path="url(#clip0_3090_76659)">
<path d="M29.2837 40.5319L28.147 45.1476C28.1058 45.3213 28.2212 45.495 28.4024 45.5198L33.4185 46.1898C33.6162 46.2146 33.7315 46.4214 33.6574 46.6034L32.5372 49.4737C32.4631 49.6557 32.5784 49.8542 32.7678 49.8873L35.6013 50.3505C35.766 50.3753 35.8813 50.5407 35.8484 50.7062L34.6293 57.6462C34.5717 57.9687 35 58.1425 35.1812 57.8695L41.647 47.9765C41.7623 47.7945 41.6635 47.5464 41.4493 47.5133L38.1135 46.9012C37.9075 46.8598 37.8005 46.6365 37.9075 46.4545L40.7739 41.3674C40.881 41.1689 40.7492 40.929 40.5268 40.9124L29.5967 40.3086C29.4484 40.3086 29.3166 40.3996 29.2837 40.5402V40.5319Z" fill="url(#paint0_linear_3090_76659)"/>
<path d="M62 34.3677C62 39.0164 58.2441 42.78 53.6232 42.78C53.2855 42.78 52.9396 42.7635 52.6184 42.7138H16.3768C11.7477 42.7138 8 38.9502 8 34.3015C8 30.8687 10.0427 27.9157 12.9832 26.6088C13.3621 23.0354 15.6602 20.041 18.8313 18.6927C20.0833 14.2508 24.1605 11 28.9872 11C32.3478 11 35.3377 12.5716 37.2733 15.0366C40.2962 15.0449 43.0143 16.3353 44.9253 18.3867C45.8395 18.122 46.795 17.9896 47.7916 17.9896C53.2196 17.9896 57.6922 22.0924 58.2852 27.3863C60.5256 28.9 62 31.4643 62 34.3759V34.3677Z" fill="url(#paint1_linear_3090_76659)"/>
<path d="M33.9542 24.6982C33.9542 27.188 31.9444 29.2063 29.4652 29.2063C26.9859 29.2063 24.9844 27.188 24.9844 24.6982C24.9844 23.8876 25.1985 23.1266 25.5692 22.4648L33.9459 24.5741C33.9459 24.5741 33.9459 24.6569 33.9459 24.6982H33.9542Z" fill="white"/>
<path d="M33.0235 24.4436C33.0235 26.371 31.4668 27.9426 29.5394 27.9426C27.612 27.9426 26.0635 26.3792 26.0635 24.4436C26.0635 23.815 26.2282 23.2194 26.5165 22.7148L33.0153 24.3526C33.0153 24.3526 33.0153 24.4188 33.0153 24.4436H33.0235Z" fill="black"/>
<path d="M36.0381 24.6982C36.0381 27.188 38.0478 29.2063 40.5271 29.2063C43.0064 29.2063 45.0079 27.188 45.0079 24.6982C45.0079 23.8876 44.7937 23.1266 44.4231 22.4648L36.0463 24.5741C36.0463 24.5741 36.0463 24.6569 36.0463 24.6982H36.0381Z" fill="white"/>
<path d="M36.9688 24.4436C36.9688 26.371 38.5255 27.9426 40.4529 27.9426C42.3803 27.9426 43.9288 26.3792 43.9288 24.4436C43.9288 23.815 43.7641 23.2194 43.4758 22.7148L36.977 24.3526C36.977 24.3526 36.977 24.4188 36.977 24.4436H36.9688Z" fill="black"/>
<path d="M32.4799 28.9731H37.5702C37.6279 28.9731 37.6855 28.9979 37.7267 29.0393L39.1023 30.4207C39.2423 30.5613 39.1434 30.7929 38.9458 30.7929H37.5208C37.4384 30.7929 37.3643 30.7433 37.3231 30.6688L37.0678 30.1477V30.7846H33.6413L33.5178 30.3131L33.4354 30.7846H30.9067C30.709 30.7846 30.6102 30.5365 30.7667 30.4041L32.3399 29.0227C32.3399 29.0227 32.4305 28.9648 32.4799 28.9648V28.9731Z" fill="black"/>
<path d="M18.5261 48.951C18.5096 50.2001 17.6283 51.2175 16.5245 51.2175C15.4208 51.2175 14.5312 50.2083 14.5312 48.951C14.5312 48.951 14.5313 48.8849 14.5395 48.7525C14.5395 48.736 14.5395 48.7194 14.5395 48.6946C14.5395 48.6781 14.5395 48.6533 14.5477 48.6367C14.5642 48.554 14.5807 48.4465 14.6054 48.3307C14.6219 48.281 14.6383 48.2231 14.6548 48.1652C14.6548 48.1321 14.6713 48.0991 14.6877 48.0577C14.8772 47.4539 15.2973 46.5357 16.228 45.3942C16.3928 45.1957 16.6646 45.1874 16.8293 45.3942C16.8293 45.3942 18.5508 47.305 18.5261 48.9428V48.951Z" fill="#9CE5FF"/>
<path d="M24.6136 55.6278C24.6054 56.4632 24.0205 57.1415 23.2792 57.1415C22.5379 57.1415 21.9531 56.4632 21.9531 55.6278C21.9531 55.6278 21.9531 55.5864 21.9531 55.4955C21.9531 55.4872 21.9531 55.4706 21.9531 55.4624C21.9531 55.4541 21.9531 55.4376 21.9531 55.421C21.9614 55.3631 21.9696 55.2969 21.9943 55.2142C22.0025 55.1811 22.0108 55.148 22.0273 55.1067C22.0273 55.0901 22.0355 55.0653 22.0437 55.0405C22.1673 54.6352 22.4556 54.0314 23.0651 53.2704C23.1722 53.138 23.3616 53.1297 23.4687 53.2704C23.4687 53.2704 24.6136 54.5442 24.5971 55.6361L24.6136 55.6278Z" fill="#9CE5FF"/>
<path d="M30.2972 50.663C30.2889 51.4984 29.7041 52.1767 28.9628 52.1767C28.2215 52.1767 27.6367 51.4984 27.6367 50.663C27.6367 50.663 27.6367 50.6216 27.6367 50.5306C27.6367 50.5223 27.6367 50.5058 27.6367 50.4975C27.6367 50.4893 27.6367 50.4727 27.6367 50.4562C27.645 50.3983 27.6532 50.3321 27.6779 50.2494C27.6861 50.2163 27.6944 50.1832 27.7108 50.1418C27.7108 50.1253 27.7191 50.1005 27.7273 50.0757C27.8509 49.6704 28.1392 49.0665 28.7487 48.3055C28.8558 48.1732 29.0452 48.1649 29.1523 48.3055C29.1523 48.3055 30.2972 49.5794 30.2807 50.6712L30.2972 50.663Z" fill="#9CE5FF"/>
<path d="M45.263 46.7255C45.2548 47.5609 44.67 48.2392 43.9287 48.2392C43.1873 48.2392 42.6025 47.5609 42.6025 46.7255C42.6025 46.7255 42.6025 46.6841 42.6025 46.5931C42.6025 46.5848 42.6025 46.5683 42.6025 46.56C42.6025 46.5518 42.6025 46.5352 42.6025 46.5187C42.6108 46.4608 42.619 46.3946 42.6437 46.3119C42.652 46.2788 42.6602 46.2457 42.6767 46.2043C42.6767 46.1878 42.6849 46.163 42.6931 46.1382C42.8167 45.7328 43.105 45.129 43.7145 44.368C43.8216 44.2357 44.011 44.2274 44.1181 44.368C44.1181 44.368 45.263 45.6419 45.2465 46.7337L45.263 46.7255Z" fill="#9CE5FF"/>
<path d="M48.5169 53.6997C48.5004 54.8329 47.7097 55.7428 46.713 55.7428C45.7164 55.7428 44.9092 54.8329 44.9092 53.6997C44.9092 53.6997 44.9092 53.6418 44.9092 53.5177C44.9092 53.5012 44.9092 53.4846 44.9092 53.4681C44.9092 53.4515 44.9092 53.435 44.9092 53.4184C44.9174 53.344 44.9339 53.253 44.9586 53.1455C44.9668 53.1041 44.9833 53.0545 44.9998 52.9966C44.9998 52.9718 45.0163 52.9387 45.0245 52.9056C45.1975 52.3597 45.5764 51.5325 46.4165 50.5068C46.5648 50.3248 46.8119 50.3165 46.9601 50.5068C46.9601 50.5068 48.5086 52.2356 48.4922 53.708L48.5169 53.6997Z" fill="#9CE5FF"/>
<path d="M55.5511 46.7255C55.5429 47.5609 54.958 48.2392 54.2167 48.2392C53.4754 48.2392 52.8906 47.5609 52.8906 46.7255C52.8906 46.7255 52.8906 46.6841 52.8906 46.5931C52.8906 46.5848 52.8906 46.5683 52.8906 46.56C52.8906 46.5518 52.8906 46.5352 52.8906 46.5187C52.8989 46.4608 52.9071 46.3946 52.9318 46.3119C52.94 46.2788 52.9483 46.2457 52.9648 46.2043C52.9648 46.1878 52.973 46.163 52.9812 46.1382C53.1048 45.7328 53.3931 45.129 54.0026 44.368C54.1097 44.2357 54.2991 44.2274 54.4062 44.368C54.4062 44.368 55.5511 45.6419 55.5346 46.7337L55.5511 46.7255Z" fill="#9CE5FF"/>
</g>
<defs>
<linearGradient id="paint0_linear_3090_76659" x1="29.5802" y1="38.5384" x2="43.7499" y2="57.3734" gradientUnits="userSpaceOnUse">
<stop stop-color="#FFFD9B"/>
<stop offset="0.04" stop-color="#FFFA98"/>
<stop offset="0.33" stop-color="#FFEB86"/>
<stop offset="0.64" stop-color="#FFE17B"/>
<stop offset="1" stop-color="#FFDF78"/>
</linearGradient>
<linearGradient id="paint1_linear_3090_76659" x1="6.55857" y1="11.5873" x2="61.3843" y2="50.9882" gradientUnits="userSpaceOnUse">
<stop stop-color="#EBEBEB"/>
<stop offset="1" stop-color="#A3A3A3"/>
</linearGradient>
<clipPath id="clip0_3090_76659">
<rect width="54" height="47" fill="white" transform="translate(8 11)"/>
</clipPath>
</defs>
</svg>
