<svg width="70" height="70" viewBox="0 0 70 70" fill="none" xmlns="http://www.w3.org/2000/svg">
<g clip-path="url(#clip0_3090_76656)">
<path d="M64.9396 39.2304C65.5096 39.1504 65.7496 39.9204 65.2396 40.1804L30.8296 57.4604L27.7896 58.9904C25.3396 59.9404 22.6196 60.3504 19.7796 60.0804C11.7596 59.3204 5.17959 52.9704 4.15959 44.9804C3.13959 36.9904 7.16959 30.4504 13.3496 27.1904L14.3596 26.7004L50.7296 9.06039C51.2596 8.80039 51.7296 9.50039 51.2896 9.89039L35.2896 24.1904C35.0596 24.3904 35.2896 24.7604 35.5696 24.6504L57.1796 16.3804C57.7096 16.1804 58.1196 16.8704 57.6896 17.2404L39.2296 32.6804C38.9996 32.8704 39.1996 33.2404 39.4796 33.1604L62.0396 26.7304C62.5796 26.5704 62.9296 27.2904 62.4796 27.6304L42.5996 42.0204C42.3696 42.1904 42.5196 42.5604 42.7996 42.5204L64.9496 39.2404L64.9396 39.2304Z" fill="url(#paint0_linear_3090_76656)"/>
<path d="M21.04 56.7206C28.7941 56.7206 35.08 50.4347 35.08 42.6806C35.08 34.9265 28.7941 28.6406 21.04 28.6406C13.2859 28.6406 7 34.9265 7 42.6806C7 50.4347 13.2859 56.7206 21.04 56.7206Z" fill="url(#paint1_linear_3090_76656)"/>
<path d="M12.2594 48.552C14.6674 48.552 16.6194 46.6 16.6194 44.192C16.6194 41.7841 14.6674 39.832 12.2594 39.832C9.85145 39.832 7.89941 41.7841 7.89941 44.192C7.89941 46.6 9.85145 48.552 12.2594 48.552Z" fill="white"/>
<path d="M11.9797 47.8422C13.6642 47.8422 15.0297 46.4767 15.0297 44.7922C15.0297 43.1077 13.6642 41.7422 11.9797 41.7422C10.2952 41.7422 8.92969 43.1077 8.92969 44.7922C8.92969 46.4767 10.2952 47.8422 11.9797 47.8422Z" fill="black"/>
<path d="M22.3893 44.2708C24.7973 44.2708 26.7493 42.3187 26.7493 39.9108C26.7493 37.5028 24.7973 35.5508 22.3893 35.5508C19.9813 35.5508 18.0293 37.5028 18.0293 39.9108C18.0293 42.3187 19.9813 44.2708 22.3893 44.2708Z" fill="white"/>
<path d="M21.9191 43.4398C23.6036 43.4398 24.9691 42.0743 24.9691 40.3898C24.9691 38.7054 23.6036 37.3398 21.9191 37.3398C20.2347 37.3398 18.8691 38.7054 18.8691 40.3898C18.8691 42.0743 20.2347 43.4398 21.9191 43.4398Z" fill="black"/>
<path d="M22.0783 44.6163L16.2288 47.0356C15.7287 47.2425 15.4909 47.8156 15.6978 48.3158L15.8277 48.6299C16.0346 49.1301 16.6078 49.3678 17.1079 49.161L22.9573 46.7417C23.4575 46.5348 23.6952 45.9617 23.4884 45.4615L23.3584 45.1473C23.1516 44.6472 22.5784 44.4094 22.0783 44.6163Z" fill="#FF7272"/>
</g>
<defs>
<linearGradient id="paint0_linear_3090_76656" x1="3.99959" y1="34.5804" x2="65.5196" y2="34.5804" gradientUnits="userSpaceOnUse">
<stop stop-color="#FF8F89"/>
<stop offset="0.49" stop-color="#F87B77"/>
<stop offset="1" stop-color="#F46C69"/>
</linearGradient>
<linearGradient id="paint1_linear_3090_76656" x1="7" y1="42.6806" x2="35.07" y2="42.6806" gradientUnits="userSpaceOnUse">
<stop stop-color="#FFFD9B"/>
<stop offset="0.33" stop-color="#FFF58F"/>
<stop offset="0.9" stop-color="#FFEA80"/>
</linearGradient>
<clipPath id="clip0_3090_76656">
<rect width="61.52" height="51.17" fill="white" transform="translate(4 9)"/>
</clipPath>
</defs>
</svg>
