<svg width="70" height="70" viewBox="0 0 70 70" fill="none" xmlns="http://www.w3.org/2000/svg">
<g clip-path="url(#clip0_3090_76663)">
<path d="M65.8898 32.35C65.8898 38.1 61.2298 42.76 55.4798 42.76C52.3098 42.76 49.4798 41.34 47.5698 39.11C45.6598 41.34 42.8298 42.76 39.6498 42.76C35.5598 42.76 32.0098 40.4 30.3198 36.96C29.0398 42.96 26.5698 42.6 20.1898 42.6C12.8598 42.59 4.0498 41.5 4.0498 34.16C4.0498 29.21 6.7498 24.9 10.7598 22.62C10.8298 16.94 15.4698 12.35 21.1598 12.35C21.7998 12.35 22.4298 12.41 23.0398 12.52C25.1598 9.2 28.8898 7 33.1198 7C36.5798 7 39.6998 8.47 41.8798 10.82C43.6598 9.39 45.9198 8.55 48.3698 8.55C54.1198 8.55 58.7698 13.21 58.7698 18.95C58.7698 20.12 58.5698 21.25 58.2198 22.3C62.6398 23.51 65.8798 27.54 65.8798 32.34L65.8898 32.35Z" fill="url(#paint0_linear_3090_76663)"/>
<path d="M16.3902 32.8906H10.2002V45.6406H16.3902V32.8906Z" fill="#ACB4F8"/>
<path d="M65.9402 35.4484V43.0884C65.9402 44.4984 64.7902 45.6484 63.3802 45.6484H59.7402V32.8984H63.3802C64.7902 32.8984 65.9402 34.0484 65.9402 35.4584V35.4484Z" fill="#ACB4F8"/>
<path d="M22.5796 32.8906H16.3896V45.6406H22.5796V32.8906Z" fill="#FEFFC6"/>
<path d="M28.7701 32.8906H22.5801V45.6406H28.7701V32.8906Z" fill="#ACB4F8"/>
<path d="M34.9803 32.8906H28.7803V45.6406H34.9803V32.8906Z" fill="#FEFFC6"/>
<path d="M41.1597 32.8906H34.9697V45.6406H41.1597V32.8906Z" fill="#ACB4F8"/>
<path d="M47.3599 32.8906H41.1699V45.6406H47.3599V32.8906Z" fill="#FEFFC6"/>
<path d="M53.5504 32.8906H47.3604V45.6406H53.5504V32.8906Z" fill="#ACB4F8"/>
<path d="M59.7498 32.8906H53.5498V45.6406H59.7498V32.8906Z" fill="#FEFFC6"/>
<path d="M10.2 32.8889V45.6389H6.56C5.15 45.6389 4 44.4889 4 43.0789V35.4389C4 34.0289 5.15 32.8789 6.56 32.8789H10.2V32.8889Z" fill="#FEFFC6"/>
<path d="M55.5703 45.6406H42.8203V51.8306H55.5703V45.6406Z" fill="#FEFFC6"/>
<path d="M44.7003 55.8203H44.6903C44.3258 55.8203 44.0303 56.1158 44.0303 56.4803V61.3503C44.0303 61.7148 44.3258 62.0103 44.6903 62.0103H44.7003C45.0648 62.0103 45.3603 61.7148 45.3603 61.3503V56.4803C45.3603 56.1158 45.0648 55.8203 44.7003 55.8203Z" fill="#ACB4F8"/>
<path d="M46.96 55.8203H46.95C46.5855 55.8203 46.29 56.1158 46.29 56.4803V61.3503C46.29 61.7148 46.5855 62.0103 46.95 62.0103H46.96C47.3245 62.0103 47.62 61.7148 47.62 61.3503V56.4803C47.62 56.1158 47.3245 55.8203 46.96 55.8203Z" fill="#ACB4F8"/>
<path d="M49.21 55.8203H49.2C48.8355 55.8203 48.54 56.1158 48.54 56.4803V61.3503C48.54 61.7148 48.8355 62.0103 49.2 62.0103H49.21C49.5745 62.0103 49.87 61.7148 49.87 61.3503V56.4803C49.87 56.1158 49.5745 55.8203 49.21 55.8203Z" fill="#ACB4F8"/>
<path d="M51.46 55.8203H51.45C51.0855 55.8203 50.79 56.1158 50.79 56.4803V61.3503C50.79 61.7148 51.0855 62.0103 51.45 62.0103H51.46C51.8245 62.0103 52.12 61.7148 52.12 61.3503V56.4803C52.12 56.1158 51.8245 55.8203 51.46 55.8203Z" fill="#ACB4F8"/>
<path d="M53.71 55.8203H53.7C53.3355 55.8203 53.04 56.1158 53.04 56.4803V61.3503C53.04 61.7148 53.3355 62.0103 53.7 62.0103H53.71C54.0745 62.0103 54.37 61.7148 54.37 61.3503V56.4803C54.37 56.1158 54.0745 55.8203 53.71 55.8203Z" fill="#ACB4F8"/>
<path d="M53.4601 58.0298H44.9501C43.7801 58.0298 42.8301 57.0798 42.8301 55.9098V51.8398H55.5801V55.9098C55.5801 57.0798 54.6301 58.0298 53.4601 58.0298Z" fill="#ACB4F8"/>
<path d="M29.82 26.3705C32.3439 26.3705 34.39 24.3244 34.39 21.8005C34.39 19.2765 32.3439 17.2305 29.82 17.2305C27.2961 17.2305 25.25 19.2765 25.25 21.8005C25.25 24.3244 27.2961 26.3705 29.82 26.3705Z" fill="white"/>
<path d="M30.4695 25.2516C32.2368 25.2516 33.6695 23.8189 33.6695 22.0516C33.6695 20.2843 32.2368 18.8516 30.4695 18.8516C28.7022 18.8516 27.2695 20.2843 27.2695 22.0516C27.2695 23.8189 28.7022 25.2516 30.4695 25.2516Z" fill="black"/>
<path d="M41.9899 26.3705C44.5139 26.3705 46.5599 24.3244 46.5599 21.8005C46.5599 19.2765 44.5139 17.2305 41.9899 17.2305C39.466 17.2305 37.4199 19.2765 37.4199 21.8005C37.4199 24.3244 39.466 26.3705 41.9899 26.3705Z" fill="white"/>
<path d="M41.3602 25.2906C43.1275 25.2906 44.5602 23.8579 44.5602 22.0906C44.5602 20.3233 43.1275 18.8906 41.3602 18.8906C39.5928 18.8906 38.1602 20.3233 38.1602 22.0906C38.1602 23.8579 39.5928 25.2906 41.3602 25.2906Z" fill="black"/>
<path d="M30.1505 29.0909C30.0305 29.0909 29.9105 29.0409 29.8105 28.9509C29.6205 28.7609 29.6205 28.4609 29.8105 28.2809L31.3405 26.7509C31.8105 26.2809 32.6305 26.2809 33.0905 26.7509L34.1005 27.6809C34.2305 27.8109 34.4105 27.8109 34.5205 27.6909L35.4305 26.8609C35.8705 26.4209 36.7005 26.4009 37.1705 26.8709L37.8805 27.5909C37.9905 27.7009 38.1705 27.7009 38.2905 27.5909L39.1005 26.7809C39.5805 26.3009 40.3705 26.3009 40.8505 26.7809L42.3205 28.2509C42.5105 28.4409 42.5105 28.7409 42.3205 28.9209C42.1305 29.1009 41.8305 29.1109 41.6505 28.9209L40.1805 27.4509C40.0705 27.3409 39.8905 27.3409 39.7705 27.4509L38.9605 28.2609C38.4805 28.7409 37.6905 28.7409 37.2105 28.2609L36.4905 27.5409C36.3805 27.4309 36.1905 27.4309 36.0805 27.5409L35.1705 28.3709C34.7005 28.8409 33.9105 28.8409 33.4305 28.3609L32.4205 27.4309C32.2805 27.2909 32.1105 27.3109 32.0005 27.4209L30.4705 28.9509C30.3805 29.0409 30.2505 29.0909 30.1305 29.0909H30.1505Z" fill="black"/>
</g>
<defs>
<linearGradient id="paint0_linear_3090_76663" x1="34.9698" y1="7" x2="34.9698" y2="42.76" gradientUnits="userSpaceOnUse">
<stop offset="0.01" stop-color="#E5F9FF"/>
<stop offset="0.19" stop-color="#DAF7FF"/>
<stop offset="0.68" stop-color="#C1F3FF"/>
<stop offset="0.98" stop-color="#B8F2FF"/>
</linearGradient>
<clipPath id="clip0_3090_76663">
<rect width="61.94" height="55.01" fill="white" transform="translate(4 7)"/>
</clipPath>
</defs>
</svg>
