<svg width="356" height="194" viewBox="0 0 356 194" fill="none" xmlns="http://www.w3.org/2000/svg">
<g filter="url(#filter0_d_2978_76600)">
<rect x="5" y="5" width="346" height="184" rx="10" fill="url(#paint0_linear_2978_76600)"/>
<path d="M32.5781 29.6328C32.5781 32.4844 33.8281 35.5898 36.9531 36.8594L35.4492 39.0664C33.3691 38.207 31.9922 36.5273 31.1914 34.4766C30.4102 36.7227 28.9941 38.5781 26.8945 39.5156L25.293 37.3086C28.3984 35.9414 29.707 32.6602 29.707 29.6328V28.9297H26.0352V26.6445H36.1719V28.9297H32.5781V29.6328ZM40.5273 24.9453V42.875H37.6953V24.9453H40.5273ZM56.8576 25.7266V27.1914C56.8576 28.5781 56.8576 30.1016 56.467 32.0938H58.7326V34.3398H42.3459V32.0938H53.6154C53.967 30.4531 54.0354 29.1445 54.0451 27.9531H44.3186V25.7266H56.8576ZM56.7404 36.0781V42.6797H44.26V36.0781H56.7404ZM47.0139 38.2656V40.4336H53.9475V38.2656H47.0139ZM79.6549 34.8867V37.1719H72.7994V42.8945H70.0065V37.1719H63.2682V34.8867H79.6549ZM71.4127 25.5117C75.2799 25.5117 78.0143 27.1133 78.0143 29.6133C78.0143 32.0742 75.2799 33.6367 71.4127 33.6367C67.5455 33.6367 64.8307 32.0742 64.8502 29.6133C64.8307 27.1133 67.5455 25.5117 71.4127 25.5117ZM71.4127 27.7383C69.1276 27.7578 67.7408 28.3828 67.7408 29.6133C67.7408 30.8047 69.1276 31.4297 71.4127 31.4297C73.7174 31.4297 75.1041 30.8047 75.1041 29.6133C75.1041 28.3828 73.7174 27.7578 71.4127 27.7383ZM95.243 24.9453V42.9141H92.45V24.9453H95.243ZM89.6571 26.4102V33.4805H84.0125V36.4492C86.659 36.4297 88.866 36.293 91.3172 35.8828L91.5516 38.1484C88.7196 38.6562 86.0828 38.7734 82.743 38.7734H81.1024V31.2734H86.786V28.6562H81.1024V26.4102H89.6571ZM113.429 33.2852V35.4922H97.042V33.2852H103.858V31.9375H98.9952V25.7266H111.495V27.9141H101.808V29.7305H111.573V31.9375H106.632V33.2852H113.429ZM105.187 36.2539C109.093 36.2539 111.437 37.4453 111.437 39.5938C111.437 41.7031 109.093 42.9141 105.187 42.9141C101.261 42.9141 98.878 41.7031 98.878 39.5938C98.878 37.4453 101.261 36.2539 105.187 36.2539ZM105.187 38.3828C102.823 38.3828 101.73 38.7734 101.749 39.5938C101.73 40.4336 102.823 40.7656 105.187 40.7656C107.491 40.7656 108.624 40.4336 108.624 39.5938C108.624 38.7734 107.491 38.3828 105.187 38.3828ZM117.376 26.5859V36.2539C118.919 36.2246 120.316 36.1074 121.868 35.7656L122.24 38.1094C120.091 38.5977 118.177 38.6758 115.833 38.6562H114.544V26.5859H117.376ZM129.505 24.9453V42.875H126.868V24.9453H129.505ZM125.657 25.2578V42.1133H123.021V32.7578H119.603V30.5117H123.021V25.2578H125.657ZM149.138 24.9453V28.1875H151.463V30.4922H149.138V33.7539H146.326V24.9453H149.138ZM138.357 25.7266V31.0391C140.388 31.0098 142.615 30.8145 144.959 30.375L145.271 32.6406C142.361 33.2266 139.588 33.3828 137.107 33.3633H135.525V25.7266H138.357ZM149.138 34.457V39.5547H139.959V40.4336H149.607V42.6797H137.127V37.4648H146.287V36.625H137.107V34.457H149.138ZM167.207 24.9453V42.875H164.375V24.9453H167.207ZM156.523 29.1055C156.523 31.166 156.689 33.4609 157.676 35.2773C158.652 33.4609 158.808 31.2051 158.808 29.1055V26.3125H161.504V29.1055C161.484 32.0938 161.777 35.2188 164.101 37.0352L162.383 39.0273C161.24 38.1484 160.537 36.8398 160.117 35.3164C159.639 36.8984 158.887 38.2656 157.676 39.1641C156.474 38.2754 155.723 36.9277 155.254 35.375C154.844 36.8105 154.17 38.0508 153.105 38.9102L151.308 37.0352C153.633 35.1797 153.906 32.0938 153.906 29.1055V26.3125H156.523V29.1055ZM183.186 29.6719V31.8594H170.588V25.5898H173.381V29.6719H183.186ZM184.982 33.5977V35.8047H168.596V33.5977H184.982ZM183.303 40.2383V42.4844H170.412V37.1523H173.225V40.2383H183.303ZM188.715 36.4102C188.715 34.0469 189.321 33.3242 190.434 32.6211C191.293 32.0742 191.957 31.5273 191.957 30.668C191.957 29.8086 191.274 29.2617 190.434 29.2617C189.614 29.2617 188.852 29.8477 188.832 30.8242H185.727C185.766 27.9531 187.895 26.6641 190.453 26.6641C193.285 26.6641 195.336 28.0312 195.336 30.5117C195.336 32.1523 194.457 33.168 193.149 33.9492C192.094 34.5742 191.586 35.1602 191.586 36.4102V36.6836H188.715V36.4102ZM190.199 41.1953C189.223 41.1953 188.422 40.4141 188.442 39.418C188.422 38.4609 189.223 37.6797 190.199 37.6797C191.137 37.6797 191.957 38.4609 191.977 39.418C191.957 40.4141 191.137 41.1953 190.199 41.1953Z" fill="white"/>
<path d="M36.6348 61.873V62.9121H25.4512V61.873H30.4141V60.5742H26.8457V56.4727H35.2539V57.498H28.1309V59.5352H35.3359V60.5742H31.6719V61.873H36.6348ZM31.0293 63.7051C33.668 63.7051 35.2539 64.5117 35.2539 65.9336C35.2539 67.3555 33.668 68.1484 31.0293 68.1621C28.377 68.1484 26.7773 67.3555 26.7773 65.9336C26.7773 64.5117 28.377 63.7051 31.0293 63.7051ZM31.0293 64.7168C29.1562 64.7168 28.0898 65.1543 28.0898 65.9336C28.0898 66.7129 29.1562 67.1504 31.0293 67.1367C32.875 67.1504 33.9551 66.7129 33.9551 65.9336C33.9551 65.1543 32.875 64.7168 31.0293 64.7168ZM39.0022 57.1836V63.9922C40.26 63.9717 41.4494 63.8896 42.8029 63.6094L42.9807 64.7168C41.3811 65.0449 40.0275 65.1133 38.51 65.1133H37.7033V57.1836H39.0022ZM47.6701 55.9121V68.1621H46.4397V55.9121H47.6701ZM45.0451 56.1855V67.5605H43.8147V61.0117H41.135V59.9453H43.8147V56.1855H45.0451ZM56.0963 59.0293C56.0826 61.2031 57.3405 63.418 59.1725 64.3066L58.3658 65.3457C57.0328 64.6553 56.0006 63.2812 55.4674 61.6406C54.9137 63.3906 53.8405 64.8535 52.4459 65.5781L51.6393 64.5254C53.526 63.623 54.7975 61.2715 54.7975 59.0293V56.9375H56.0963V59.0293ZM61.3873 55.9121V60.793H63.3561V61.9004H61.3873V68.1621H60.0885V55.9121H61.3873ZM74.7059 61.8867V62.9395H63.536V61.8867H66.2157V60.2324C65.2723 59.8496 64.7391 59.2344 64.7391 58.4277C64.7391 56.9785 66.4207 56.1309 69.1141 56.1309C71.7938 56.1309 73.4891 56.9785 73.4891 58.4277C73.4891 59.2344 72.9491 59.8564 71.9989 60.2324V61.8867H74.7059ZM69.1141 63.7734C71.7528 63.7734 73.3387 64.5527 73.3387 65.9473C73.3387 67.3691 71.7528 68.1348 69.1141 68.1348C66.4481 68.1348 64.8621 67.3691 64.8621 65.9473C64.8621 64.5527 66.4481 63.7734 69.1141 63.7734ZM69.1141 64.7715C67.241 64.7715 66.1746 65.1953 66.1746 65.9473C66.1746 66.7129 67.241 67.1504 69.1141 67.1367C70.9598 67.1504 72.0399 66.7129 72.0399 65.9473C72.0399 65.1953 70.9598 64.7715 69.1141 64.7715ZM69.1141 57.1289C67.2137 57.1289 66.0653 57.6074 66.0789 58.4277C66.0653 59.248 67.2137 59.7129 69.1141 59.7129C71.0145 59.7129 72.1493 59.248 72.1493 58.4277C72.1493 57.6074 71.0145 57.1289 69.1141 57.1289ZM67.5282 61.8867H70.7137V60.5742C70.2352 60.6562 69.6951 60.6973 69.1141 60.6973C68.5399 60.6973 68.0067 60.6562 67.5282 60.5879V61.8867ZM79.4932 59.5215C79.4932 61.4629 80.7647 63.623 82.6241 64.498L81.8858 65.5098C80.5118 64.8467 79.4248 63.4658 78.878 61.8594C78.3106 63.6162 77.1621 65.127 75.7608 65.8242L74.9952 64.7988C76.8545 63.9102 78.208 61.5996 78.208 59.5215V58.2227H75.4463V57.1426H82.1592V58.2227H79.4932V59.5215ZM84.7705 55.9121V60.7656H86.7393V61.8594H84.7705V68.1621H83.4717V55.9121H84.7705ZM98.1028 60.9297V61.9688H86.9192V60.9297H98.1028ZM96.7766 59.002V60.041H88.3821V56.2676H96.6536V57.3203H89.6809V59.002H96.7766ZM96.6809 62.9395V65.9062H89.5442V67H97.0227V68.0254H88.2727V64.9492H95.3958V63.9375H88.259V62.9395H96.6809ZM105.433 57.2246V57.9766C105.433 59.002 105.433 60.5879 105.078 62.7754L103.792 62.6797C104.1 60.7178 104.134 59.3027 104.148 58.2773H99.1713V57.2246H105.433ZM102.289 60.7246V64.3887C103.594 64.3477 104.92 64.2588 106.144 64.1016L106.212 65.0723C103.656 65.4824 100.812 65.5371 98.6381 65.5234L98.4877 64.4707C99.2534 64.4639 100.108 64.457 101.003 64.4297V60.7246H102.289ZM108.154 55.9121V60.9707H110.027V62.0781H108.154V68.1621H106.841V55.9121H108.154ZM122.937 55.9121V59.084H124.715V60.1914H122.937V63.2949H121.639V55.9121H122.937ZM122.937 63.9375V68.0117H115.117V63.9375H122.937ZM116.389 64.9629V66.959H121.652V64.9629H116.389ZM120.627 57.1562V58.1953H113.326V57.1562H116.334V55.8164H117.633V57.1562H120.627ZM116.976 58.7285C118.74 58.7285 119.943 59.6035 119.943 60.916C119.943 62.2422 118.74 63.1035 116.976 63.1172C115.185 63.1035 113.996 62.2422 113.996 60.916C113.996 59.6035 115.185 58.7285 116.976 58.7285ZM116.976 59.7266C115.937 59.7129 115.24 60.1777 115.254 60.916C115.24 61.6816 115.937 62.1328 116.976 62.1328C118.016 62.1328 118.713 61.6816 118.726 60.916C118.713 60.1777 118.016 59.7129 116.976 59.7266ZM128.039 57.3613C128.025 60.1094 127.684 62.9395 125.975 65.3457L124.963 64.7715C126.392 62.8574 126.822 60.7383 126.918 58.4277H125.25V57.3613H128.039ZM130.76 57.3613C130.76 58.3936 130.739 59.5215 130.609 60.6562H132.045V56.2266H133.275V67.5605H132.045V61.709H130.459C130.179 63.2334 129.666 64.7441 128.723 66.084L127.711 65.4961C129.297 63.3701 129.584 60.793 129.639 58.4277H128.408V57.3613H130.76ZM135.6 55.9121V68.1621H134.356V55.9121H135.6ZM149.331 55.9121V58.373H151.108V59.4668H149.331V62.0508H148.032V55.9121H149.331ZM141.565 56.459V60.4512C143.212 60.4375 144.949 60.3076 146.829 59.9316L146.993 61.0117C144.928 61.4219 143.069 61.5449 141.264 61.5449H140.266V56.459H141.565ZM149.331 62.6113V65.7285H142.727V66.959H149.754V68.0117H141.442V64.7305H148.032V63.6367H141.415V62.6113H149.331ZM161.747 55.9121V68.1621H160.434V55.9121H161.747ZM154.309 59.5352C154.309 60.8203 154.521 62.5703 155.444 63.8145C156.353 62.5977 156.551 60.8818 156.565 59.5352V56.9648H157.809V59.5352C157.809 61.2578 158.178 63.377 159.71 64.4844L158.903 65.4141C158.008 64.7578 157.481 63.7119 157.18 62.543C156.893 63.7393 156.367 64.8398 155.444 65.5098C154.521 64.8398 153.995 63.7324 153.708 62.543C153.407 63.6846 152.894 64.7168 152.04 65.373L151.192 64.4844C152.723 63.3496 153.092 61.2168 153.106 59.5352V56.9648H154.309V59.5352ZM176.312 55.9121V63.1992H175.013V60.0957H172.73V59.0293H175.013V55.9121H176.312ZM172.21 63.541C174.78 63.541 176.353 64.3887 176.353 65.8516C176.353 67.3145 174.78 68.1484 172.21 68.1621C169.64 68.1484 168.054 67.3145 168.068 65.8516C168.054 64.3887 169.64 63.541 172.21 63.541ZM172.21 64.5527C170.419 64.5527 169.353 65.0176 169.353 65.8516C169.353 66.6719 170.419 67.1504 172.21 67.1367C174.001 67.1504 175.068 66.6719 175.068 65.8516C175.068 65.0176 174.001 64.5527 172.21 64.5527ZM170.487 58.0723C170.487 59.6309 171.595 61.1348 173.441 61.7637L172.771 62.7891C171.397 62.3105 170.385 61.333 169.859 60.123C169.318 61.4971 168.245 62.5977 166.782 63.1309L166.099 62.0918C167.999 61.4355 169.161 59.7812 169.161 58.0859V57.8125H166.509V56.7598H173.112V57.8125H170.487V58.0723ZM189.001 65.5645V66.6445H177.79V65.5645H182.726V63.0488H179.076V56.7461H180.374V58.8516H186.39V56.7461H187.675V63.0488H184.011V65.5645H189.001ZM180.374 61.9961H186.39V59.9043H180.374V61.9961ZM200.679 61.5312V62.5293H189.468V61.5312H200.679ZM199.298 63.3906V66.084H192.107V67.0957H199.681V68.0117H190.808V65.2227H198.013V64.3203H190.794V63.3906H199.298ZM199.271 56.2266V58.8789H192.189V59.8086H199.476V60.7246H190.904V58.0176H197.972V57.1426H190.876V56.2266H199.271ZM209.707 63.6094C212.359 63.6094 214.027 64.4434 214.041 65.8789C214.027 67.3008 212.359 68.1484 209.707 68.1348C207.082 68.1484 205.4 67.3008 205.4 65.8789C205.4 64.4434 207.082 63.6094 209.707 63.6094ZM209.707 64.5938C207.848 64.5938 206.686 65.0723 206.699 65.8789C206.686 66.6719 207.848 67.1367 209.707 67.1367C211.58 67.1367 212.742 66.6719 212.756 65.8789C212.742 65.0723 211.58 64.5938 209.707 64.5938ZM213.945 56.5137V57.5391C213.945 58.5234 213.945 59.5352 213.603 60.793L212.332 60.6562C212.66 59.4053 212.66 58.5029 212.66 57.5527H205.496V56.5137H213.945ZM215.34 61.5449V62.5977H204.197V61.5449H208.668V59.248H209.939V61.5449H215.34ZM227.072 62.8301V63.8965H224.229V68.1621H222.916V63.8965H219.99V68.1621H218.651V63.8965H215.861V62.8301H227.072ZM221.44 56.377C224.024 56.377 225.801 57.4297 225.801 59.084C225.801 60.7109 224.024 61.75 221.44 61.7363C218.842 61.75 217.078 60.7109 217.078 59.084C217.078 57.4297 218.842 56.377 221.44 56.377ZM221.44 57.416C219.621 57.4297 218.404 58.0586 218.418 59.084C218.404 60.082 219.621 60.7109 221.44 60.7109C223.258 60.7109 224.475 60.082 224.475 59.084C224.475 58.0586 223.258 57.4297 221.44 57.416ZM233.623 57.9355V58.9883H227.539V57.9355H229.946V56.2676H231.231V57.9355H233.623ZM230.588 59.7266C232.147 59.7266 233.241 60.8887 233.254 62.543C233.241 64.2109 232.147 65.3867 230.588 65.3867C229.057 65.3867 227.922 64.2109 227.936 62.543C227.922 60.8887 229.057 59.7266 230.588 59.7266ZM230.588 60.8066C229.7 60.8066 229.084 61.5312 229.084 62.543C229.084 63.582 229.7 64.2793 230.588 64.2793C231.463 64.2793 232.106 63.582 232.106 62.543C232.106 61.5312 231.463 60.8066 230.588 60.8066ZM238.053 55.9121V68.1621H236.823V62.0781H235.414V67.5879H234.184V56.1855H235.414V61.0117H236.823V55.9121H238.053ZM253.438 62.8164V63.8691H248.462V68.1484H247.19V63.8691H242.268V62.8164H253.438ZM252.386 56.6367V57.6758H248.598C248.619 59.1934 250.506 60.5469 252.823 60.8613L252.345 61.8867C250.335 61.5723 248.598 60.5811 247.86 59.1797C247.101 60.5811 245.372 61.5723 243.389 61.8867L242.897 60.8613C245.187 60.5469 247.074 59.1934 247.122 57.6758H243.307V56.6367H252.386ZM257.692 59.2617C257.692 61.2168 258.513 63.3086 260.153 64.3066L259.429 65.3047C258.28 64.6143 257.501 63.3906 257.091 61.9688C256.633 63.5273 255.792 64.8535 254.603 65.5781L253.796 64.6074C255.532 63.5684 256.435 61.4082 256.435 59.3164V57.0332H257.692V59.2617ZM264.501 55.9121V68.1621H263.257V55.9121H264.501ZM261.958 56.1445V67.5605H260.728V61.2988H258.827V60.2188H260.728V56.1445H261.958ZM276.863 65.5508V66.6309H265.652V65.5508H268.331V62.3516C267.326 61.7979 266.718 60.916 266.718 59.8223C266.718 57.8945 268.605 56.623 271.23 56.623C273.868 56.623 275.755 57.8945 275.755 59.8223C275.755 60.9023 275.167 61.7705 274.183 62.3242V65.5508H276.863ZM271.23 57.6621C269.302 57.6621 267.976 58.4961 267.976 59.8223C267.976 61.1348 269.302 61.9961 271.23 61.9961C273.144 61.9961 274.497 61.1348 274.497 59.8223C274.497 58.4961 273.144 57.6621 271.23 57.6621ZM269.616 65.5508H272.87V62.8164C272.371 62.9463 271.818 63.0078 271.23 63.0078C270.655 63.0078 270.109 62.9463 269.616 62.8301V65.5508ZM279.599 57.1016L279.476 64.1426H278.122L277.999 57.1016H279.599ZM278.806 67.0957C278.273 67.0957 277.822 66.6582 277.835 66.125C277.822 65.5918 278.273 65.1543 278.806 65.1543C279.326 65.1543 279.777 65.5918 279.777 66.125C279.777 66.6582 279.326 67.0957 278.806 67.0957ZM30.9746 79.6094C33.627 79.6094 35.2949 80.4434 35.3086 81.8789C35.2949 83.3008 33.627 84.1484 30.9746 84.1348C28.3496 84.1484 26.668 83.3008 26.668 81.8789C26.668 80.4434 28.3496 79.6094 30.9746 79.6094ZM30.9746 80.5938C29.1152 80.5938 27.9531 81.0723 27.9668 81.8789C27.9531 82.6719 29.1152 83.1367 30.9746 83.1367C32.8477 83.1367 34.0098 82.6719 34.0234 81.8789C34.0098 81.0723 32.8477 80.5938 30.9746 80.5938ZM35.2129 72.5137V73.5391C35.2129 74.5234 35.2129 75.5352 34.8711 76.793L33.5996 76.6562C33.9277 75.4053 33.9277 74.5029 33.9277 73.5527H26.7637V72.5137H35.2129ZM36.6074 77.5449V78.5977H25.4648V77.5449H29.9355V75.248H31.207V77.5449H36.6074ZM48.34 78.8301V79.8965H45.4963V84.1621H44.1838V79.8965H41.258V84.1621H39.9182V79.8965H37.1291V78.8301H48.34ZM42.7072 72.377C45.2912 72.377 47.0686 73.4297 47.0686 75.084C47.0686 76.7109 45.2912 77.75 42.7072 77.7363C40.1096 77.75 38.3459 76.7109 38.3459 75.084C38.3459 73.4297 40.1096 72.377 42.7072 72.377ZM42.7072 73.416C40.8889 73.4297 39.6721 74.0586 39.6858 75.084C39.6721 76.082 40.8889 76.7109 42.7072 76.7109C44.5256 76.7109 45.7424 76.082 45.7424 75.084C45.7424 74.0586 44.5256 73.4297 42.7072 73.416ZM61.4694 71.8711V74.7422H63.2604V75.8086H61.4694V78.6113H60.1705V71.8711H61.4694ZM61.4694 79.1855V82.0293H54.8522V83.0547H61.8932V84.0391H53.5807V81.1133H60.1842V80.1562H53.5533V79.1855H61.4694ZM59.1588 72.9512V73.9766H51.858V72.9512H54.8658V71.8027H56.1647V72.9512H59.1588ZM55.5084 74.4414C57.2994 74.4414 58.4752 75.207 58.4752 76.4512C58.4752 77.6953 57.2994 78.4473 55.5084 78.4473C53.7037 78.4473 52.528 77.6953 52.528 76.4512C52.528 75.207 53.7037 74.4414 55.5084 74.4414ZM55.5084 75.3711C54.4557 75.3711 53.7721 75.7949 53.7858 76.4512C53.7721 77.1074 54.4557 77.5039 55.5084 77.5039C56.5612 77.5039 57.2448 77.1074 57.2584 76.4512C57.2448 75.7949 56.5612 75.3711 55.5084 75.3711ZM69.8114 72.9922C69.7977 74.6191 71.7938 76.1504 74.2 76.4648L73.6942 77.5312C71.6912 77.21 69.9276 76.1709 69.1414 74.7285C68.3348 76.1777 66.578 77.21 64.5887 77.5312L64.0692 76.4648C66.4754 76.1504 68.4442 74.6328 68.4578 72.9922V72.3223H69.8114V72.9922ZM74.7059 78.7344V79.8008H69.7293V84.1621H68.4578V79.8008H63.536V78.7344H74.7059ZM86.4248 78.5977V79.6504H75.2139V78.5977H80.1768V77.4355H76.6495V74.3184H83.7178V73.2246H76.6221V72.1992H85.0166V75.2754H77.9346V76.4238H85.2627V77.4355H81.462V78.5977H86.4248ZM85.085 80.5117V84.0664H83.7725V81.5508H76.4717V80.5117H85.085ZM96.1499 73.0469V74.127H91.8432V80.1016C93.894 80.0947 95.309 80.0195 96.9155 79.7051L97.0659 80.7715C95.3022 81.0996 93.812 81.1816 91.5014 81.1816H90.5307V73.0469H96.1499ZM100.156 71.9121V84.1895H98.8569V77.3672H95.4526V76.2871H98.8569V71.9121H100.156ZM114.844 71.9121V79.1992H113.545V76.0957H111.262V75.0293H113.545V71.9121H114.844ZM110.742 79.541C113.312 79.541 114.885 80.3887 114.885 81.8516C114.885 83.3145 113.312 84.1484 110.742 84.1621C108.172 84.1484 106.586 83.3145 106.599 81.8516C106.586 80.3887 108.172 79.541 110.742 79.541ZM110.742 80.5527C108.951 80.5527 107.885 81.0176 107.885 81.8516C107.885 82.6719 108.951 83.1504 110.742 83.1367C112.533 83.1504 113.599 82.6719 113.599 81.8516C113.599 81.0176 112.533 80.5527 110.742 80.5527ZM109.019 74.0723C109.019 75.6309 110.127 77.1348 111.973 77.7637L111.303 78.7891C109.929 78.3105 108.917 77.333 108.391 76.123C107.85 77.4971 106.777 78.5977 105.314 79.1309L104.631 78.0918C106.531 77.4355 107.693 75.7812 107.693 74.0859V73.8125H105.041V72.7598H111.644V73.8125H109.019V74.0723ZM125.961 71.9258V75.5625H127.711V76.6289H125.961V80.1699H124.662V71.9258H125.961ZM116.24 78.8027C117.191 78.8027 118.291 78.8027 119.44 78.7617V77.9414C118.045 77.7979 117.156 77.1416 117.17 76.1504C117.156 75.0293 118.318 74.332 120.082 74.3457C121.832 74.332 122.994 75.0293 122.994 76.1504C122.994 77.1348 122.119 77.791 120.738 77.9414V78.7207C121.832 78.666 122.94 78.5771 123.965 78.4336L124.074 79.3633C121.436 79.8281 118.537 79.8418 116.377 79.8418L116.24 78.8027ZM125.961 80.7441V84.1621H124.662V81.7559H117.772V80.7441H125.961ZM123.623 72.9648V73.9355H116.555V72.9648H119.44V71.8164H120.738V72.9648H123.623ZM120.082 75.2344C119.029 75.2207 118.4 75.5625 118.4 76.1504C118.4 76.7246 119.029 77.0938 120.082 77.0938C121.121 77.0938 121.75 76.7246 121.75 76.1504C121.75 75.5625 121.121 75.2207 120.082 75.2344ZM137.639 71.9258V75.8633H139.416V76.9434H137.639V81.0859H136.34V71.9258H137.639ZM135.328 73.3477V74.4004H128.028V73.3477H131.035V71.9121H132.334V73.3477H135.328ZM131.678 74.9883C133.442 74.9883 134.645 75.9043 134.645 77.2988C134.645 78.6934 133.442 79.5957 131.678 79.5957C129.901 79.5957 128.698 78.6934 128.698 77.2988C128.698 75.9043 129.901 74.9883 131.678 74.9883ZM131.678 75.9863C130.639 75.9863 129.942 76.4922 129.955 77.2988C129.942 78.0918 130.639 78.584 131.678 78.584C132.717 78.584 133.414 78.0918 133.428 77.2988C133.414 76.4922 132.717 75.9863 131.678 75.9863ZM138.158 82.8496V83.9023H129.873V80.3613H131.172V82.8496H138.158ZM152.341 71.9121V74.373H154.118V75.4668H152.341V78.0508H151.042V71.9121H152.341ZM144.575 72.459V76.4512C146.222 76.4375 147.959 76.3076 149.839 75.9316L150.003 77.0117C147.938 77.4219 146.079 77.5449 144.274 77.5449H143.276V72.459H144.575ZM152.341 78.6113V81.7285H145.737V82.959H152.764V84.0117H144.452V80.7305H151.042V79.6367H144.425V78.6113H152.341ZM164.757 71.9121V84.1621H163.444V71.9121H164.757ZM157.319 75.5352C157.319 76.8203 157.531 78.5703 158.454 79.8145C159.363 78.5977 159.561 76.8818 159.575 75.5352V72.9648H160.819V75.5352C160.819 77.2578 161.188 79.377 162.72 80.4844L161.913 81.4141C161.017 80.7578 160.491 79.7119 160.19 78.543C159.903 79.7393 159.377 80.8398 158.454 81.5098C157.531 80.8398 157.005 79.7324 156.718 78.543C156.417 79.6846 155.904 80.7168 155.05 81.373L154.202 80.4844C155.733 79.3496 156.102 77.2168 156.116 75.5352V72.9648H157.319V75.5352ZM177.296 77.5312V78.5293H166.085V77.5312H177.296ZM175.915 79.3906V82.084H168.724V83.0957H176.298V84.0117H167.425V81.2227H174.63V80.3203H167.411V79.3906H175.915ZM175.888 72.2266V74.8789H168.806V75.8086H176.093V76.7246H167.521V74.0176H174.589V73.1426H167.493V72.2266H175.888ZM190.425 71.9121V74.4688H192.203V75.5488H190.425V78.1055H189.126V71.9121H190.425ZM190.425 78.666V81.7695H183.808V82.9727H190.849V84.0117H182.537V80.7988H189.14V79.6777H182.509V78.666H190.425ZM184.205 72.3359C186.064 72.3359 187.418 73.457 187.418 75.0703C187.418 76.6836 186.064 77.8047 184.205 77.8047C182.345 77.8047 180.978 76.6836 180.992 75.0703C180.978 73.457 182.345 72.3359 184.205 72.3359ZM184.205 73.4023C183.07 73.4023 182.25 74.0723 182.25 75.0703C182.25 76.0684 183.07 76.7656 184.205 76.7656C185.326 76.7656 186.16 76.0684 186.16 75.0703C186.16 74.0723 185.326 73.4023 184.205 73.4023ZM201.777 72.9922C201.764 74.6191 203.76 76.1504 206.166 76.4648L205.66 77.5312C203.657 77.21 201.894 76.1709 201.107 74.7285C200.301 76.1777 198.544 77.21 196.555 77.5312L196.035 76.4648C198.441 76.1504 200.41 74.6328 200.424 72.9922V72.3223H201.777V72.9922ZM206.672 78.7344V79.8008H201.695V84.1621H200.424V79.8008H195.502V78.7344H206.672ZM214.455 80.0059C214.455 81.0586 214.975 82.1729 216.082 82.8359C217.21 82.1182 217.764 80.9424 217.764 80.0059V79.418H219.036V80.0059C219.036 81.2773 219.87 82.5078 221.469 83.0273L220.827 83.9844C219.617 83.5674 218.796 82.7539 218.366 81.7422C217.976 82.7334 217.245 83.6289 216.123 84.0938C214.948 83.6494 214.203 82.7812 213.827 81.7832C213.382 82.7471 212.576 83.5605 211.42 83.9844L210.764 83.0273C212.336 82.4668 213.184 81.1953 213.198 80.0059V79.418H214.455V80.0059ZM220.362 71.9258V78.8984H219.063V71.9258H220.362ZM213.717 72.5957C215.59 72.5957 216.971 73.7852 216.971 75.4941C216.971 77.1895 215.59 78.3652 213.717 78.3652C211.844 78.3652 210.45 77.1895 210.45 75.4941C210.45 73.7852 211.844 72.5957 213.717 72.5957ZM213.717 73.7031C212.555 73.6895 211.721 74.4141 211.721 75.4941C211.721 76.5605 212.555 77.2852 213.717 77.2852C214.866 77.2852 215.7 76.5605 215.7 75.4941C215.7 74.4141 214.866 73.6895 213.717 73.7031ZM225.217 72.8281C226.878 72.8281 228.095 74.2363 228.294 76.5059H230.823V71.9121H232.108V84.1895H230.823V77.5586H228.307C228.164 79.9443 226.92 81.4277 225.217 81.4277C223.385 81.4277 222.1 79.7598 222.114 77.1211C222.1 74.4961 223.385 72.8281 225.217 72.8281ZM225.217 73.9902C224.11 73.9902 223.344 75.1934 223.344 77.1211C223.344 79.0625 224.11 80.2656 225.217 80.2656C226.325 80.2656 227.09 79.0625 227.09 77.1211C227.09 75.1934 226.325 73.9902 225.217 73.9902ZM244.798 81.5508V82.6309H233.587V81.5508H236.266V78.3516C235.262 77.7979 234.653 76.916 234.653 75.8223C234.653 73.8945 236.54 72.623 239.165 72.623C241.803 72.623 243.69 73.8945 243.69 75.8223C243.69 76.9023 243.102 77.7705 242.118 78.3242V81.5508H244.798ZM239.165 73.6621C237.237 73.6621 235.911 74.4961 235.911 75.8223C235.911 77.1348 237.237 77.9961 239.165 77.9961C241.079 77.9961 242.432 77.1348 242.432 75.8223C242.432 74.4961 241.079 73.6621 239.165 73.6621ZM237.552 81.5508H240.805V78.8164C240.306 78.9463 239.753 79.0078 239.165 79.0078C238.591 79.0078 238.044 78.9463 237.552 78.8301V81.5508Z" fill="white"/>
<rect x="25" y="102" width="139" height="41" rx="5" fill="white"/>
<path d="M48.836 115.266V118.016H50.8047V119.453H48.836V122.297H47.1016V115.266H48.836ZM40.0547 115.891V120.344C41.8438 120.328 43.7657 120.18 45.8204 119.781L46.0235 121.203C43.6797 121.688 41.5235 121.812 39.4766 121.797H38.3047V115.891H40.0547ZM48.836 122.906V126.656H41.3516V127.812H49.2735V129.219H39.6172V125.328H47.086V124.281H39.6016V122.906H48.836ZM63.1311 115.266V129.391H61.3655V115.266H63.1311ZM54.6155 119.141C54.6155 120.695 54.8108 122.625 55.7874 124.062C56.7483 122.648 56.928 120.742 56.9436 119.141V116.438H58.5999V119.141C58.5999 121.25 58.9592 123.703 60.7405 125.031L59.678 126.266C58.6858 125.531 58.0999 124.391 57.7561 123.094C57.4124 124.43 56.8108 125.625 55.7874 126.375C54.7717 125.625 54.1624 124.43 53.8186 123.094C53.4749 124.367 52.9124 125.477 51.9749 126.203L50.8499 125.031C52.6311 123.656 52.9905 121.219 52.9905 119.141V116.438H54.6155V119.141ZM79.7526 115.266V123.656H78.0182V120.203H75.612V118.781H78.0182V115.266H79.7526ZM74.9714 124.016C77.9714 124.016 79.7995 125 79.7995 126.703C79.7995 128.406 77.9714 129.391 74.9714 129.391C71.987 129.391 70.1589 128.406 70.1745 126.703C70.1589 125 71.987 124.016 74.9714 124.016ZM74.9714 125.344C73.0026 125.344 71.8932 125.812 71.8932 126.703C71.8932 127.578 73.0026 128.047 74.9714 128.047C76.9401 128.047 78.0651 127.578 78.0651 126.703C78.0651 125.812 76.9401 125.344 74.9714 125.344ZM73.112 117.688C73.112 119.406 74.2526 121.141 76.4401 121.875L75.5651 123.25C73.9948 122.719 72.8776 121.641 72.2682 120.312C71.6432 121.82 70.4636 123.023 68.7839 123.625L67.8776 122.25C70.1432 121.469 71.3464 119.562 71.3464 117.703V117.594H68.4089V116.188H76.0339V117.594H73.112V117.688ZM94.2509 126.266V127.688H81.3446V126.266H86.9071V123.516H82.7665V116.203H84.5009V118.516H91.0477V116.203H92.7821V123.516H88.6259V126.266H94.2509ZM84.5009 122.109H91.0477V119.906H84.5009V122.109ZM104.513 124.094C107.576 124.109 109.513 125.078 109.529 126.75C109.513 128.391 107.576 129.375 104.513 129.375C101.466 129.375 99.513 128.391 99.513 126.75C99.513 125.078 101.466 124.109 104.513 124.094ZM104.513 125.406C102.482 125.406 101.247 125.891 101.263 126.75C101.247 127.578 102.482 128.031 104.513 128.031C106.56 128.031 107.794 127.578 107.81 126.75C107.794 125.891 106.56 125.406 104.513 125.406ZM109.435 115.938V117.109C109.435 118.219 109.435 119.406 109.044 120.859L107.326 120.703C107.677 119.328 107.701 118.336 107.701 117.312H99.6536V115.938H109.435ZM110.997 121.672V123.078H98.1849V121.672H103.154V119.109H104.872V121.672H110.997ZM124.464 123.188V124.594H121.324V129.391H119.558V124.594H116.433V129.391H114.652V124.594H111.558V123.188H124.464ZM117.98 115.766C120.98 115.781 123.074 117 123.074 118.922C123.074 120.812 120.98 122.016 117.98 122.016C114.964 122.016 112.902 120.812 112.917 118.922C112.902 117 114.964 115.781 117.98 115.766ZM117.98 117.172C115.98 117.172 114.683 117.812 114.699 118.922C114.683 120 115.98 120.641 117.98 120.641C119.98 120.641 121.277 120 121.277 118.922C121.277 117.812 119.98 117.172 117.98 117.172ZM136.056 115.266V120.891H138.228V122.328H136.056V129.391H134.338V115.266H136.056ZM133.244 117.438V118.828H124.916V117.438H128.259V115.469H129.994V117.438H133.244ZM129.134 119.75C131.166 119.75 132.681 121.125 132.681 123.078C132.681 125.031 131.166 126.391 129.134 126.391C127.072 126.391 125.556 125.031 125.572 123.078C125.556 121.125 127.072 119.75 129.134 119.75ZM129.134 121.172C128.025 121.172 127.228 121.922 127.228 123.078C127.228 124.234 128.025 124.969 129.134 124.953C130.213 124.969 131.009 124.234 131.025 123.078C131.009 121.922 130.213 121.172 129.134 121.172ZM150.211 115.266V129.391H148.461V115.266H150.211ZM145.992 116.766C145.992 120.969 144.367 124.547 139.414 126.891L138.508 125.5C142.203 123.742 143.922 121.352 144.227 118.141H139.227V116.766H145.992Z" fill="#00BFFE"/>
<path d="M248.911 134.332L244.421 131.417C243.882 131.067 243.853 130.28 244.378 129.886L248.707 126.738C250.179 125.659 250.456 123.575 249.304 122.161L245.937 118.007C245.529 117.497 245.748 116.739 246.374 116.549L251.461 114.902C253.196 114.334 254.1 112.439 253.444 110.734L251.52 105.734C251.287 105.122 251.738 104.481 252.38 104.481H257.729C259.551 104.481 261.009 102.95 260.907 101.128L260.63 95.779C260.6 95.1377 261.227 94.6567 261.839 94.8461L266.926 96.4932C268.661 97.0617 270.512 96.0559 270.978 94.2923L272.363 89.1179C272.538 88.4911 273.281 88.2287 273.806 88.6077L278.135 91.7561C279.607 92.8347 281.677 92.4411 282.668 90.9107L285.583 86.4213C285.933 85.882 286.72 85.8529 287.114 86.3776L290.262 90.7066C291.341 92.1788 293.425 92.4557 294.839 91.3042L298.993 87.9372C299.503 87.5291 300.261 87.7477 300.451 88.3745L302.098 93.4614C302.666 95.196 304.561 96.0997 306.266 95.4437L311.266 93.5197C311.878 93.2865 312.519 93.7384 312.519 94.3797V99.729C312.519 101.551 314.05 103.009 315.872 102.907L321.221 102.63C321.862 102.6 322.343 103.227 322.154 103.839L320.507 108.926C319.938 110.661 320.944 112.512 322.708 112.978L327.882 114.363C328.509 114.538 328.771 115.281 328.392 115.806L325.244 120.135C324.165 121.607 324.559 123.677 326.089 124.668L330.579 127.583C331.118 127.933 331.147 128.72 330.622 129.114L326.293 132.262C324.821 133.341 324.544 135.425 325.696 136.839L329.063 140.993C329.471 141.503 329.252 142.261 328.625 142.451L323.539 144.098C321.804 144.666 320.9 146.561 321.556 148.266L323.48 153.266C323.713 153.878 323.262 154.519 322.62 154.519H317.271C315.449 154.519 313.991 156.05 314.093 157.872L314.37 163.221C314.4 163.862 313.773 164.343 313.161 164.154L308.074 162.507C306.339 161.938 304.488 162.944 304.022 164.708L302.637 169.882C302.462 170.509 301.719 170.771 301.194 170.392L296.865 167.244C295.393 166.165 293.323 166.559 292.332 168.089L289.417 172.579C289.067 173.118 288.28 173.147 287.886 172.622L284.738 168.293C283.659 166.821 281.575 166.544 280.161 167.696L276.007 171.063C275.497 171.471 274.739 171.252 274.549 170.626L272.902 165.539C272.334 163.804 270.439 162.9 268.734 163.556L263.734 165.48C263.122 165.713 262.481 165.262 262.481 164.62V159.271C262.481 157.449 260.95 155.991 259.128 156.093L253.779 156.37C253.138 156.4 252.657 155.773 252.846 155.161L254.493 150.074C255.062 148.339 254.056 146.488 252.292 146.022L247.118 144.637C246.491 144.462 246.229 143.719 246.608 143.194L249.756 138.865C250.835 137.393 250.441 135.323 248.911 134.332Z" fill="#FF8F89"/>
<path d="M288.133 160.973C305.288 160.973 319.194 147.067 319.194 129.913C319.194 112.758 305.288 98.8516 288.133 98.8516C270.979 98.8516 257.073 112.758 257.073 129.913C257.073 147.067 270.979 160.973 288.133 160.973Z" fill="#FFFD9B"/>
<path d="M294.693 123.807C295.334 127.276 292.244 130.759 287.784 131.576C283.324 132.392 279.199 130.264 278.558 126.795L294.708 123.807H294.693Z" fill="#FF7272"/>
<path d="M283.057 125.959L286.625 125.297L286.817 126.329C286.968 127.146 286.429 127.913 285.626 128.062L284.981 128.181C284.164 128.333 283.397 127.793 283.248 126.991L283.057 125.959Z" fill="white"/>
<path d="M286.635 125.275L290.204 124.613L290.395 125.645C290.547 126.462 290.007 127.229 289.205 127.378L288.56 127.498C287.743 127.649 286.976 127.11 286.827 126.307L286.635 125.275Z" fill="white"/>
<path d="M315.084 107.496L252.001 119.2C250.922 119.404 250.208 120.439 250.412 121.518L250.587 122.465C250.791 123.544 251.826 124.258 252.904 124.054L255.178 123.631C258.356 129.403 264.973 132.756 271.794 131.487C278.383 130.263 283.236 125.089 284.373 118.865C287.667 124.272 294.052 127.363 300.64 126.138C307.461 124.87 312.432 119.375 313.321 112.845L315.974 112.349C317.052 112.145 317.766 111.111 317.562 110.032L317.387 109.085C317.183 108.006 316.148 107.292 315.07 107.496H315.084ZM281.458 118.69C281.458 118.69 281.458 118.734 281.458 118.763C281.021 123.966 276.94 128.499 271.299 129.549C265.643 130.598 260.207 127.829 257.933 123.121C257.933 123.106 257.904 123.077 257.904 123.063C257.248 121.707 258.122 120.089 259.682 119.798L278.645 116.285C280.205 115.993 281.589 117.189 281.473 118.69H281.458ZM310.449 113.311C310.449 113.311 310.449 113.355 310.449 113.384C310.012 118.588 305.945 123.121 300.29 124.17C294.635 125.22 289.198 122.45 286.924 117.743C286.924 117.728 286.895 117.699 286.895 117.684C286.254 116.329 287.114 114.711 288.688 114.419L307.636 110.906C309.21 110.615 310.581 111.81 310.464 113.311H310.449Z" fill="#408CFF"/>
<path d="M281.458 118.689C281.458 118.689 281.458 118.733 281.458 118.762C281.021 123.966 276.94 128.499 271.299 129.548C265.644 130.598 260.207 127.828 257.933 123.12C257.933 123.106 257.904 123.077 257.904 123.062C257.248 121.706 258.122 120.089 259.682 119.797L278.645 116.284C280.205 115.993 281.589 117.188 281.473 118.689H281.458Z" fill="black"/>
<path d="M310.449 113.312C310.449 113.312 310.449 113.356 310.449 113.385C310.012 118.589 305.946 123.122 300.29 124.171C294.635 125.221 289.198 122.451 286.924 117.743C286.924 117.729 286.895 117.7 286.895 117.685C286.254 116.33 287.114 114.712 288.688 114.42L307.636 110.907C309.211 110.616 310.581 111.811 310.464 113.312H310.449Z" fill="black"/>
</g>
<defs>
<filter id="filter0_d_2978_76600" x="0" y="0" width="356" height="194" filterUnits="userSpaceOnUse" color-interpolation-filters="sRGB">
<feFlood flood-opacity="0" result="BackgroundImageFix"/>
<feColorMatrix in="SourceAlpha" type="matrix" values="0 0 0 0 0 0 0 0 0 0 0 0 0 0 0 0 0 0 127 0" result="hardAlpha"/>
<feOffset/>
<feGaussianBlur stdDeviation="2.5"/>
<feComposite in2="hardAlpha" operator="out"/>
<feColorMatrix type="matrix" values="0 0 0 0 0 0 0 0 0 0 0 0 0 0 0 0 0 0 0.15 0"/>
<feBlend mode="normal" in2="BackgroundImageFix" result="effect1_dropShadow_2978_76600"/>
<feBlend mode="normal" in="SourceGraphic" in2="effect1_dropShadow_2978_76600" result="shape"/>
</filter>
<linearGradient id="paint0_linear_2978_76600" x1="-49" y1="-5.73333" x2="371.381" y2="191.505" gradientUnits="userSpaceOnUse">
<stop stop-color="#00BFFE"/>
<stop offset="1" stop-color="#99E5FF"/>
</linearGradient>
</defs>
</svg>
