<svg width="70" height="70" viewBox="0 0 70 70" fill="none" xmlns="http://www.w3.org/2000/svg">
<g clip-path="url(#clip0_3090_76662)">
<path d="M65.0798 43.1017C65.0798 43.7317 64.8198 44.3117 64.3998 44.7217C63.9798 45.1417 63.4098 45.4017 62.7698 45.4017H58.0398C58.3098 45.7817 58.4698 46.2317 58.4698 46.7317C58.4698 47.2317 58.3098 47.7017 58.0298 48.0817H59.3198C60.5898 48.0817 61.6198 49.1217 61.6198 50.3817C61.6198 51.0117 61.3598 51.5917 60.9398 52.0117C60.5298 52.4317 59.9498 52.6917 59.3098 52.6917H17.5198C17.1198 52.6917 16.7198 52.6617 16.3298 52.6217C12.0398 52.0917 8.62977 48.7117 8.03977 44.4417C8.00977 44.4417 7.97977 44.4417 7.94977 44.4417C4.66977 44.4417 2.00977 41.7817 2.00977 38.5017C2.00977 35.6017 4.07977 33.1917 6.82977 32.6617C7.64977 28.2117 11.5498 24.8417 16.2398 24.8417C16.5498 24.8417 16.8498 24.8517 17.1498 24.8817C18.3098 20.9117 21.9798 18.0117 26.3398 18.0117C29.0298 18.0117 31.4598 19.1217 33.1998 20.9117H52.7698C54.0298 20.9117 55.0698 21.9517 55.0698 23.2117C55.0698 23.8417 54.8098 24.4217 54.3898 24.8317C53.9698 25.2417 53.3998 25.5117 52.7598 25.5117H45.0798C45.2398 25.7217 45.3798 25.9517 45.5098 26.1817C46.1998 26.1817 46.8798 26.2617 47.5298 26.4017H60.1098C61.3698 26.4017 62.4098 27.4317 62.4098 28.7017C62.4098 29.3417 62.1498 29.9117 61.7298 30.3317C61.3098 30.7517 60.7398 31.0117 60.0998 31.0117H53.7898C54.5998 32.4117 55.0498 34.0317 55.0498 35.7617C55.0498 37.6217 54.5198 39.3517 53.6098 40.8217H62.7698C64.0298 40.8217 65.0698 41.8617 65.0698 43.1217L65.0798 43.1017Z" fill="url(#paint0_linear_3090_76662)"/>
<path d="M62.26 20.9023H59.51C58.2397 20.9023 57.21 21.9321 57.21 23.2023C57.21 24.4726 58.2397 25.5023 59.51 25.5023H62.26C63.5302 25.5023 64.56 24.4726 64.56 23.2023C64.56 21.9321 63.5302 20.9023 62.26 20.9023Z" fill="url(#paint1_linear_3090_76662)"/>
<path d="M67.7299 28.6906C67.7299 27.4204 66.7001 26.3906 65.4299 26.3906C64.1596 26.3906 63.1299 27.4204 63.1299 28.6906C63.1299 29.9609 64.1596 30.9906 65.4299 30.9906C66.7001 30.9906 67.7299 29.9609 67.7299 28.6906Z" fill="url(#paint2_linear_3090_76662)"/>
<path d="M19.8397 35.3434C21.9991 35.3434 23.7497 33.5929 23.7497 31.4334C23.7497 29.274 21.9991 27.5234 19.8397 27.5234C17.6803 27.5234 15.9297 29.274 15.9297 31.4334C15.9297 33.5929 17.6803 35.3434 19.8397 35.3434Z" fill="white"/>
<path d="M18.8993 34.0116C20.3242 34.0116 21.4793 32.8565 21.4793 31.4316C21.4793 30.0067 20.3242 28.8516 18.8993 28.8516C17.4744 28.8516 16.3193 30.0067 16.3193 31.4316C16.3193 32.8565 17.4744 34.0116 18.8993 34.0116Z" fill="black"/>
<path d="M29.7498 35.3434C31.9093 35.3434 33.6598 33.5929 33.6598 31.4334C33.6598 29.274 31.9093 27.5234 29.7498 27.5234C27.5904 27.5234 25.8398 29.274 25.8398 31.4334C25.8398 33.5929 27.5904 35.3434 29.7498 35.3434Z" fill="white"/>
<path d="M28.8095 34.0116C30.2344 34.0116 31.3895 32.8565 31.3895 31.4316C31.3895 30.0067 30.2344 28.8516 28.8095 28.8516C27.3846 28.8516 26.2295 30.0067 26.2295 31.4316C26.2295 32.8565 27.3846 34.0116 28.8095 34.0116Z" fill="black"/>
<path d="M27.3297 35.7305C27.3297 36.8805 26.1297 37.8105 24.6497 37.8105C23.1697 37.8105 21.9697 36.8805 21.9697 35.7305H27.3297Z" fill="#FF7272"/>
<path d="M23.4697 35.7305H24.6597V35.9705C24.6597 36.3005 24.3897 36.5605 24.0697 36.5605C23.7397 36.5605 23.4797 36.2905 23.4797 35.9705V35.7305H23.4697Z" fill="white"/>
<path d="M24.6494 35.7305H25.8394V35.9705C25.8394 36.3005 25.5694 36.5605 25.2494 36.5605C24.9194 36.5605 24.6594 36.2905 24.6594 35.9705V35.7305H24.6494Z" fill="white"/>
</g>
<defs>
<linearGradient id="paint0_linear_3090_76662" x1="1.99977" y1="35.3417" x2="65.0798" y2="35.3417" gradientUnits="userSpaceOnUse">
<stop offset="0.01" stop-color="#AECFFF"/>
<stop offset="0.29" stop-color="#ABCDFE"/>
<stop offset="0.5" stop-color="#A1C8FA"/>
<stop offset="0.69" stop-color="#91BFF5"/>
<stop offset="0.74" stop-color="#8CBCF4"/>
</linearGradient>
<linearGradient id="paint1_linear_3090_76662" x1="57.21" y1="23.2023" x2="64.55" y2="23.2023" gradientUnits="userSpaceOnUse">
<stop offset="0.01" stop-color="#AECFFF"/>
<stop offset="0.25" stop-color="#A4C9FB"/>
<stop offset="0.63" stop-color="#8CBCF4"/>
</linearGradient>
<linearGradient id="paint2_linear_3090_76662" x1="63.1299" y1="28.6906" x2="67.7299" y2="28.6906" gradientUnits="userSpaceOnUse">
<stop offset="0.01" stop-color="#AECFFF"/>
<stop offset="0.25" stop-color="#A4C9FB"/>
<stop offset="0.63" stop-color="#8CBCF4"/>
</linearGradient>
<clipPath id="clip0_3090_76662">
<rect width="65.73" height="34.68" fill="white" transform="translate(2 18)"/>
</clipPath>
</defs>
</svg>
